<svg width="36" height="46" viewBox="0 0 36 46" fill="none" xmlns="http://www.w3.org/2000/svg">
<path d="M30.6884 39.2841C27.4316 43.6903 21.3491 44.7919 18.7149 44.7919C14.1171 45.175 10.2536 43.5147 8.89667 42.6366C7.30019 41.5191 3.6762 37.9909 1.95201 32.8184C0.227827 27.6458 1.2336 20.7651 1.95201 17.9712C3.06954 13.102 6.11879 5.42301 9.37558 13.6608C12.6324 21.8985 15.1287 18.5802 16.3261 15.8662C16.8848 14.7487 17.284 12.7052 17.284 9.64002C17.284 6.57481 20.7962 0.619983 22.0734 1.0191C25.6654 2.53574 33.5621 12.5592 34.5199 20.6054C35.7173 30.6631 34.7594 33.7763 30.6884 39.2841Z" fill="#2DB878" stroke="#2DB878"/>
<path d="M11.8978 25.8C11.8978 24.8933 12.1711 24.1733 12.7178 23.64C13.2644 23.0933 13.9644 22.82 14.8178 22.82C15.6711 22.82 16.3711 23.0933 16.9178 23.64C17.4644 24.1733 17.7378 24.8933 17.7378 25.8C17.7378 26.72 17.4644 27.4533 16.9178 28C16.3711 28.5333 15.6711 28.8 14.8178 28.8C13.9644 28.8 13.2644 28.5333 12.7178 28C12.1711 27.4533 11.8978 26.72 11.8978 25.8ZM23.5778 23.04L15.4778 37H13.6778L21.7778 23.04H23.5778ZM14.8178 23.94C14.3644 23.94 14.0044 24.1 13.7378 24.42C13.4844 24.7267 13.3578 25.1867 13.3578 25.8C13.3578 26.4133 13.4844 26.88 13.7378 27.2C14.0044 27.52 14.3644 27.68 14.8178 27.68C15.2711 27.68 15.6311 27.52 15.8978 27.2C16.1644 26.8667 16.2978 26.4 16.2978 25.8C16.2978 25.1867 16.1644 24.7267 15.8978 24.42C15.6311 24.1 15.2711 23.94 14.8178 23.94ZM19.5578 34.24C19.5578 33.32 19.8311 32.5933 20.3778 32.06C20.9244 31.5133 21.6244 31.24 22.4778 31.24C23.3311 31.24 24.0244 31.5133 24.5578 32.06C25.1044 32.5933 25.3778 33.32 25.3778 34.24C25.3778 35.1467 25.1044 35.8733 24.5578 36.42C24.0244 36.9667 23.3311 37.24 22.4778 37.24C21.6244 37.24 20.9244 36.9733 20.3778 36.44C19.8311 35.8933 19.5578 35.16 19.5578 34.24ZM22.4578 32.38C22.0044 32.38 21.6444 32.54 21.3778 32.86C21.1111 33.1667 20.9778 33.6267 20.9778 34.24C20.9778 34.84 21.1111 35.3 21.3778 35.62C21.6444 35.9267 22.0044 36.08 22.4578 36.08C22.9111 36.08 23.2711 35.9267 23.5378 35.62C23.8044 35.3 23.9378 34.84 23.9378 34.24C23.9378 33.6267 23.8044 33.1667 23.5378 32.86C23.2711 32.54 22.9111 32.38 22.4578 32.38Z" fill="white"/>
</svg>
