<svg width="300" height="140" viewBox="0 0 300 140" fill="none" xmlns="http://www.w3.org/2000/svg">
<path d="M282.746 138.988C282.746 138.988 268.334 139.012 246.352 139.061C181.989 139.182 52.6887 139.4 30.1328 139.291C-0.132989 139.145 -21.0718 58.1253 35.5227 63.6287C96.9917 69.5922 52.0325 33.1065 88.2388 27.0581C127.644 20.4639 135.589 45.8223 163.886 35.4583C202.565 21.2881 223.574 26.2216 237.037 36.5613C251.801 47.9071 257.46 65.762 267.373 72.0045C267.596 72.1501 267.819 72.2832 268.041 72.4045C287.304 83.3139 296.022 93.8717 298.869 103.241C305.22 124.03 282.746 138.988 282.746 138.988Z" fill="#EBF3FA"/>
<path d="M267.377 72.0069L121.368 97.6911L110.465 84.1665L237.035 36.5624C251.801 47.9084 257.466 65.7586 267.377 72.0069Z" fill="#F8FBFF"/>
<path d="M191.145 40.0936L46.6597 88.2593C50.9162 85.0496 41.1279 67.6481 46.8739 61.8736L191.145 40.0936Z" fill="#F8FBFF"/>
<path d="M208.915 39.1744C210.839 39.1744 212.398 37.5616 212.398 35.572C212.398 33.5824 210.839 31.9695 208.915 31.9695C206.992 31.9695 205.433 33.5824 205.433 35.572C205.433 37.5616 206.992 39.1744 208.915 39.1744Z" fill="#F8FBFF"/>
<path d="M180.325 43.7274H163.839V126.659H180.325V43.7274Z" fill="#C4D9ED"/>
<path d="M184.028 43.7274H167.542V126.659H184.028V43.7274Z" fill="#D5E7F7"/>
<path d="M184.027 43.7054H167.546V48.4977H184.027V43.7054Z" fill="#C4D9ED"/>
<path d="M184.027 54.0992H167.546V58.8914H184.027V54.0992Z" fill="#C4D9ED"/>
<path d="M184.027 64.4927H167.546V69.285H184.027V64.4927Z" fill="#C4D9ED"/>
<path d="M184.027 74.8864H167.546V79.6786H184.027V74.8864Z" fill="#C4D9ED"/>
<path d="M184.027 85.28H167.546V90.0723H184.027V85.28Z" fill="#C4D9ED"/>
<path d="M184.027 95.6736H167.546V100.466H184.027V95.6736Z" fill="#C4D9ED"/>
<path d="M184.027 106.067H167.546V110.86H184.027V106.067Z" fill="#C4D9ED"/>
<path d="M184.027 116.461H167.546V121.253H184.027V116.461Z" fill="#C4D9ED"/>
<path d="M206.677 55.4623H190.192V126.659H206.677V55.4623Z" fill="#C4D9ED"/>
<path d="M210.38 55.4623H193.895V126.659H210.38V55.4623Z" fill="#D5E7F7"/>
<path d="M210.38 55.4435H193.899V59.5576H210.38V55.4435Z" fill="#C4D9ED"/>
<path d="M210.38 64.3663H193.899V68.4805H210.38V64.3663Z" fill="#C4D9ED"/>
<path d="M210.38 73.2893H193.899V77.4033H210.38V73.2893Z" fill="#C4D9ED"/>
<path d="M210.38 82.2122H193.899V86.3263H210.38V82.2122Z" fill="#C4D9ED"/>
<path d="M210.38 91.1349H193.899V95.2491H210.38V91.1349Z" fill="#C4D9ED"/>
<path d="M210.38 100.058H193.899V104.172H210.38V100.058Z" fill="#C4D9ED"/>
<path d="M210.38 108.981H193.899V113.095H210.38V108.981Z" fill="#C4D9ED"/>
<path d="M210.38 117.904H193.899V122.018H210.38V117.904Z" fill="#C4D9ED"/>
<path d="M161.82 124.115H154.917V134.529H161.82V124.115Z" fill="#DCEAF9"/>
<path d="M157.025 109.908V138.82H83.9001L83.4022 138.816L64.7402 138.634C64.7246 138.606 64.7056 138.572 64.6838 138.534C64.6529 138.478 64.6167 138.412 64.5747 138.337C64.5611 138.311 64.5457 138.284 64.5293 138.255C64.4739 138.152 64.4112 138.036 64.3412 137.904C64.2559 137.743 64.1605 137.56 64.0551 137.356V137.355C63.6626 136.594 63.1421 135.538 62.5506 134.227C62.3562 133.797 62.1554 133.338 61.9473 132.853C61.8647 132.66 61.7821 132.463 61.6975 132.262V132.261C61.6157 132.066 61.534 131.868 61.4523 131.665C61.4496 131.658 61.4468 131.652 61.4441 131.645C61.3878 131.506 61.3305 131.365 61.2733 131.221C61.2134 131.075 61.1543 130.926 61.0943 130.776C60.7891 129.999 60.4766 129.175 60.1658 128.306C60.1576 128.283 60.1494 128.26 60.1413 128.237C60.1413 128.237 60.1413 128.237 60.1413 128.236C59.9376 127.668 59.7351 127.08 59.5343 126.475C59.4236 126.142 59.3145 125.805 59.2053 125.462C59.1989 125.441 59.1917 125.42 59.1853 125.398C59.1373 125.246 59.0899 125.093 59.0417 124.939C59.0018 124.81 58.9618 124.68 58.9229 124.549C58.8411 124.28 58.7592 124.009 58.6785 123.734C58.5749 123.382 58.4722 123.024 58.3715 122.662C58.2352 122.17 58.1016 121.671 57.9717 121.162C57.9326 121.01 57.8935 120.856 57.8554 120.703C57.741 120.244 57.6284 119.778 57.5193 119.308C57.4838 119.156 57.4493 119.005 57.4157 118.853C57.3938 118.759 57.373 118.665 57.3521 118.571C57.1876 117.826 57.0314 117.066 56.8859 116.293C56.7252 115.441 56.577 114.573 56.4444 113.69C56.3216 112.875 56.2108 112.047 56.1155 111.208C56.0246 110.416 55.9473 109.614 55.8846 108.803C55.7357 106.905 55.6674 104.957 55.6965 102.973C55.7474 99.5177 56.0972 95.953 56.8494 92.3438C56.8768 92.2121 56.9051 92.0816 56.933 91.9499C57.1193 91.0909 57.3273 90.2309 57.5608 89.3692C57.738 88.7122 57.9297 88.0543 58.136 87.3964C58.2859 86.9198 58.443 86.4425 58.6085 85.965C58.9828 84.8841 59.398 83.8033 59.8577 82.7234H60.2483V81.8266C62.743 76.258 66.4208 70.7418 71.6549 65.5239C71.753 65.426 71.8511 65.3292 71.9484 65.2325H72.2546V76.2919H81.7159V58.2711H92.1558V69.9695H94.5361V56.0032H104.976V82.1888H118.18V97.4578H123.113V101.305H134.445V94.6805H140.951V76.6812H148.988V109.908H157.025Z" fill="#D5E7F7"/>
<path d="M104.982 57.7709H94.5366V60.4389H104.982V57.7709Z" fill="#C4D9ED"/>
<path d="M104.982 62.783H94.5366V65.4512H104.982V62.783Z" fill="#C4D9ED"/>
<path d="M104.982 67.2925H94.5366V69.9605H104.982V67.2925Z" fill="#C4D9ED"/>
<path d="M92.165 67.2925H81.7192V69.9605H92.165V67.2925Z" fill="#C4D9ED"/>
<path d="M92.165 62.783H81.7192V65.4512H92.165V62.783Z" fill="#C4D9ED"/>
<path d="M92.165 58.2806H81.7192V60.9486H92.165V58.2806Z" fill="#C4D9ED"/>
<path d="M104.982 71.6647H81.7158V74.3327H104.982V71.6647Z" fill="#C4D9ED"/>
<path d="M104.982 76.0369H81.7158V78.705H104.982V76.0369Z" fill="#C4D9ED"/>
<path d="M148.984 76.6833H140.876V80.8015H148.984V76.6833Z" fill="#C4D9ED"/>
<path d="M148.984 82.8079H140.876V86.9263H148.984V82.8079Z" fill="#C4D9ED"/>
<path d="M148.984 88.9325H140.876V93.0509H148.984V88.9325Z" fill="#C4D9ED"/>
<path d="M148.984 95.3527H140.876V99.4711H148.984V95.3527Z" fill="#C4D9ED"/>
<path d="M148.984 101.574H140.876V105.692H148.984V101.574Z" fill="#C4D9ED"/>
<path d="M148.984 107.795H140.876V111.913H148.984V107.795Z" fill="#C4D9ED"/>
<path d="M148.984 114.303H140.876V118.422H148.984V114.303Z" fill="#C4D9ED"/>
<path d="M104.982 80.31H81.7158V82.0037H104.982V80.31Z" fill="#C4D9ED"/>
<path d="M140.989 76.6833H138V94.6807H140.989V76.6833Z" fill="#C4D9ED"/>
<path d="M134.445 94.6807H128.432V101.305H134.445V94.6807Z" fill="#C4D9ED"/>
<path d="M81.7186 58.2806V60.9488L81.7168 71.6642L81.7159 74.3325V76.2921H79.6436V58.4928C79.737 58.4214 79.8297 58.3509 79.9224 58.2806H81.7186Z" fill="#C4D9ED"/>
<path d="M94.5362 56.0032H93.2622V69.9604H94.5362V56.0032Z" fill="#C4D9ED"/>
<g opacity="0.8">
<g opacity="0.8">
<g opacity="0.8">
<g opacity="0.8">
<path opacity="0.8" d="M116.023 84.8159H114.253V87.3965H116.023V84.8159Z" fill="#C4D9ED"/>
<path opacity="0.8" d="M112.713 84.8159H110.943V87.3965H112.713V84.8159Z" fill="#C4D9ED"/>
<path opacity="0.8" d="M109.477 84.8159H107.708V87.3965H109.477V84.8159Z" fill="#C4D9ED"/>
<path opacity="0.8" d="M106.409 84.8159H104.64V87.3965H106.409V84.8159Z" fill="#C4D9ED"/>
<path opacity="0.8" d="M103.283 84.8159H101.513V87.3965H103.283V84.8159Z" fill="#C4D9ED"/>
</g>
<g opacity="0.8">
<path opacity="0.8" d="M100.12 84.8159H98.3506V87.3965H100.12V84.8159Z" fill="#C4D9ED"/>
<path opacity="0.8" d="M96.8108 84.8159H95.041V87.3965H96.8108V84.8159Z" fill="#C4D9ED"/>
<path opacity="0.8" d="M93.5755 84.8159H91.8057V87.3965H93.5755V84.8159Z" fill="#C4D9ED"/>
<path opacity="0.8" d="M90.5076 84.8159H88.7378V87.3965H90.5076V84.8159Z" fill="#C4D9ED"/>
<path opacity="0.8" d="M87.381 84.8159H85.6113V87.3965H87.381V84.8159Z" fill="#C4D9ED"/>
</g>
</g>
<g opacity="0.8">
<g opacity="0.8">
<path opacity="0.8" d="M84.1225 84.8159H82.3525V87.3965H84.1225V84.8159Z" fill="#C4D9ED"/>
<path opacity="0.8" d="M80.8128 84.8159H79.043V87.3965H80.8128V84.8159Z" fill="#C4D9ED"/>
<path opacity="0.8" d="M77.5769 84.8159H75.8071V87.3965H77.5769V84.8159Z" fill="#C4D9ED"/>
<path opacity="0.8" d="M74.5091 84.8159H72.7393V87.3965H74.5091V84.8159Z" fill="#C4D9ED"/>
<path opacity="0.8" d="M71.3825 84.8159H69.6128V87.3965H71.3825V84.8159Z" fill="#C4D9ED"/>
</g>
<g opacity="0.8">
<path opacity="0.8" d="M68.2201 84.8159H66.4502V87.3965H68.2201V84.8159Z" fill="#C4D9ED"/>
<path opacity="0.8" d="M64.9103 84.8159H63.1406V87.3965H64.9103V84.8159Z" fill="#C4D9ED"/>
<path opacity="0.8" d="M61.6741 84.8159H59.9043V87.3965H61.6741V84.8159Z" fill="#C4D9ED"/>
<path opacity="0.8" d="M58.6073 85.9652V87.3966H58.1348C58.2847 86.9201 58.4419 86.4427 58.6073 85.9652Z" fill="#C4D9ED"/>
</g>
</g>
</g>
<g opacity="0.8">
<g opacity="0.8">
<g opacity="0.8">
<path opacity="0.8" d="M116.023 89.3697H114.253V91.9504H116.023V89.3697Z" fill="#C4D9ED"/>
<path opacity="0.8" d="M112.713 89.3697H110.943V91.9503H112.713V89.3697Z" fill="#C4D9ED"/>
<path opacity="0.8" d="M109.478 89.3697H107.708V91.9504H109.478V89.3697Z" fill="#C4D9ED"/>
<path opacity="0.8" d="M106.41 89.3697H104.64V91.9503H106.41V89.3697Z" fill="#C4D9ED"/>
<path opacity="0.8" d="M103.283 89.3697H101.514V91.9503H103.283V89.3697Z" fill="#C4D9ED"/>
</g>
<g opacity="0.8">
<path opacity="0.8" d="M100.121 89.3697H98.3511V91.9504H100.121V89.3697Z" fill="#C4D9ED"/>
<path opacity="0.8" d="M96.8113 89.3697H95.0415V91.9503H96.8113V89.3697Z" fill="#C4D9ED"/>
<path opacity="0.8" d="M93.5759 89.3697H91.8062V91.9504H93.5759V89.3697Z" fill="#C4D9ED"/>
<path opacity="0.8" d="M90.5081 89.3697H88.7383V91.9503H90.5081V89.3697Z" fill="#C4D9ED"/>
<path opacity="0.8" d="M87.3815 89.3696H85.6118V91.9503H87.3815V89.3696Z" fill="#C4D9ED"/>
</g>
</g>
<g opacity="0.8">
<g opacity="0.8">
<path opacity="0.8" d="M84.1234 89.3697H82.3535V91.9504H84.1234V89.3697Z" fill="#C4D9ED"/>
<path opacity="0.8" d="M80.8133 89.3697H79.0435V91.9503H80.8133V89.3697Z" fill="#C4D9ED"/>
<path opacity="0.8" d="M77.5774 89.3697H75.8076V91.9504H77.5774V89.3697Z" fill="#C4D9ED"/>
<path opacity="0.8" d="M74.5095 89.3697H72.7397V91.9503H74.5095V89.3697Z" fill="#C4D9ED"/>
<path opacity="0.8" d="M71.383 89.3697H69.6133V91.9503H71.383V89.3697Z" fill="#C4D9ED"/>
</g>
<g opacity="0.8">
<path opacity="0.8" d="M68.2221 89.3697H66.4521V91.9504H68.2221V89.3697Z" fill="#C4D9ED"/>
<path opacity="0.8" d="M64.9123 89.3697H63.1426V91.9504H64.9123V89.3697Z" fill="#C4D9ED"/>
<path opacity="0.8" d="M61.6765 89.3697H59.9067V91.9503H61.6765V89.3697Z" fill="#C4D9ED"/>
<path opacity="0.8" d="M58.6094 89.3694V91.9501H56.9341C57.1203 91.0911 57.3284 90.2311 57.5619 89.3694H58.6094Z" fill="#C4D9ED"/>
</g>
</g>
</g>
<g opacity="0.8">
<g opacity="0.8">
<g opacity="0.8">
<path opacity="0.8" d="M116.022 93.8537H114.252V96.4345H116.022V93.8537Z" fill="#C4D9ED"/>
<path opacity="0.8" d="M112.712 93.8537H110.942V96.4345H112.712V93.8537Z" fill="#C4D9ED"/>
<path opacity="0.8" d="M109.476 93.8537H107.707V96.4345H109.476V93.8537Z" fill="#C4D9ED"/>
<path opacity="0.8" d="M106.408 93.8537H104.639V96.4345H106.408V93.8537Z" fill="#C4D9ED"/>
<path opacity="0.8" d="M103.282 93.8537H101.512V96.4345H103.282V93.8537Z" fill="#C4D9ED"/>
</g>
<g opacity="0.8">
<path opacity="0.8" d="M100.12 93.8537H98.3506V96.4345H100.12V93.8537Z" fill="#C4D9ED"/>
<path opacity="0.8" d="M96.8103 93.8537H95.0405V96.4345H96.8103V93.8537Z" fill="#C4D9ED"/>
<path opacity="0.8" d="M93.575 93.8537H91.8052V96.4345H93.575V93.8537Z" fill="#C4D9ED"/>
<path opacity="0.8" d="M90.5071 93.8537H88.7373V96.4345H90.5071V93.8537Z" fill="#C4D9ED"/>
<path opacity="0.8" d="M87.3805 93.8537H85.6108V96.4345H87.3805V93.8537Z" fill="#C4D9ED"/>
</g>
</g>
<g opacity="0.8">
<g opacity="0.8">
<path opacity="0.8" d="M84.122 93.8537H82.3521V96.4345H84.122V93.8537Z" fill="#C4D9ED"/>
<path opacity="0.8" d="M80.8123 93.8537H79.0425V96.4345H80.8123V93.8537Z" fill="#C4D9ED"/>
<path opacity="0.8" d="M77.5764 93.8537H75.8066V96.4345H77.5764V93.8537Z" fill="#C4D9ED"/>
<path opacity="0.8" d="M74.5086 93.8537H72.7388V96.4345H74.5086V93.8537Z" fill="#C4D9ED"/>
<path opacity="0.8" d="M71.382 93.8537H69.6123V96.4345H71.382V93.8537Z" fill="#C4D9ED"/>
</g>
<g opacity="0.8">
<path opacity="0.8" d="M68.2201 93.8537H66.4502V96.4345H68.2201V93.8537Z" fill="#C4D9ED"/>
<path opacity="0.8" d="M64.9108 93.8537H63.1411V96.4345H64.9108V93.8537Z" fill="#C4D9ED"/>
<path opacity="0.8" d="M61.6751 93.8537H59.9053V96.4345H61.6751V93.8537Z" fill="#C4D9ED"/>
<path opacity="0.8" d="M58.6073 93.8537H56.8374V96.4345H58.6073V93.8537Z" fill="#C4D9ED"/>
</g>
</g>
</g>
<g opacity="0.8">
<g opacity="0.8">
<g opacity="0.8">
<g opacity="0.8">
<path opacity="0.8" d="M116.022 98.6182H114.252V101.199H116.022V98.6182Z" fill="#C4D9ED"/>
<path opacity="0.8" d="M112.712 98.6182H110.942V101.199H112.712V98.6182Z" fill="#C4D9ED"/>
<path opacity="0.8" d="M109.476 98.6182H107.707V101.199H109.476V98.6182Z" fill="#C4D9ED"/>
<path opacity="0.8" d="M106.408 98.6182H104.639V101.199H106.408V98.6182Z" fill="#C4D9ED"/>
<path opacity="0.8" d="M103.282 98.6182H101.512V101.199H103.282V98.6182Z" fill="#C4D9ED"/>
</g>
<g opacity="0.8">
<path opacity="0.8" d="M100.12 98.6181H98.3506V101.199H100.12V98.6181Z" fill="#C4D9ED"/>
<path opacity="0.8" d="M96.8103 98.6181H95.0405V101.199H96.8103V98.6181Z" fill="#C4D9ED"/>
<path opacity="0.8" d="M93.575 98.6181H91.8052V101.199H93.575V98.6181Z" fill="#C4D9ED"/>
<path opacity="0.8" d="M90.5071 98.6181H88.7373V101.199H90.5071V98.6181Z" fill="#C4D9ED"/>
<path opacity="0.8" d="M87.3805 98.6181H85.6108V101.199H87.3805V98.6181Z" fill="#C4D9ED"/>
</g>
</g>
<g opacity="0.8">
<g opacity="0.8">
<path opacity="0.8" d="M84.122 98.6182H82.3521V101.199H84.122V98.6182Z" fill="#C4D9ED"/>
<path opacity="0.8" d="M80.8123 98.6182H79.0425V101.199H80.8123V98.6182Z" fill="#C4D9ED"/>
<path opacity="0.8" d="M77.5764 98.6182H75.8066V101.199H77.5764V98.6182Z" fill="#C4D9ED"/>
<path opacity="0.8" d="M74.5086 98.6182H72.7388V101.199H74.5086V98.6182Z" fill="#C4D9ED"/>
<path opacity="0.8" d="M71.382 98.6182H69.6123V101.199H71.382V98.6182Z" fill="#C4D9ED"/>
</g>
<g opacity="0.8">
<path opacity="0.8" d="M68.2201 98.6182H66.4502V101.199H68.2201V98.6182Z" fill="#C4D9ED"/>
<path opacity="0.8" d="M64.9108 98.6182H63.1411V101.199H64.9108V98.6182Z" fill="#C4D9ED"/>
<path opacity="0.8" d="M61.6751 98.6182H59.9053V101.199H61.6751V98.6182Z" fill="#C4D9ED"/>
<path opacity="0.8" d="M58.6073 98.6182H56.8374V101.199H58.6073V98.6182Z" fill="#C4D9ED"/>
</g>
</g>
</g>
<g opacity="0.8">
<g opacity="0.8">
<g opacity="0.8">
<path opacity="0.8" d="M116.022 103.172H114.252V105.753H116.022V103.172Z" fill="#C4D9ED"/>
<path opacity="0.8" d="M112.712 103.172H110.942V105.753H112.712V103.172Z" fill="#C4D9ED"/>
<path opacity="0.8" d="M109.476 103.172H107.707V105.753H109.476V103.172Z" fill="#C4D9ED"/>
<path opacity="0.8" d="M106.408 103.172H104.639V105.753H106.408V103.172Z" fill="#C4D9ED"/>
<path opacity="0.8" d="M103.282 103.172H101.512V105.753H103.282V103.172Z" fill="#C4D9ED"/>
</g>
<g opacity="0.8">
<path opacity="0.8" d="M100.12 103.172H98.3506V105.753H100.12V103.172Z" fill="#C4D9ED"/>
<path opacity="0.8" d="M96.8103 103.172H95.0405V105.753H96.8103V103.172Z" fill="#C4D9ED"/>
<path opacity="0.8" d="M93.575 103.172H91.8052V105.753H93.575V103.172Z" fill="#C4D9ED"/>
<path opacity="0.8" d="M90.5071 103.172H88.7373V105.753H90.5071V103.172Z" fill="#C4D9ED"/>
<path opacity="0.8" d="M87.3805 103.172H85.6108V105.753H87.3805V103.172Z" fill="#C4D9ED"/>
</g>
</g>
<g opacity="0.8">
<g opacity="0.8">
<path opacity="0.8" d="M84.122 103.172H82.3521V105.753H84.122V103.172Z" fill="#C4D9ED"/>
<path opacity="0.8" d="M80.8123 103.172H79.0425V105.753H80.8123V103.172Z" fill="#C4D9ED"/>
<path opacity="0.8" d="M77.5764 103.172H75.8066V105.753H77.5764V103.172Z" fill="#C4D9ED"/>
<path opacity="0.8" d="M74.5086 103.172H72.7388V105.753H74.5086V103.172Z" fill="#C4D9ED"/>
<path opacity="0.8" d="M71.382 103.172H69.6123V105.753H71.382V103.172Z" fill="#C4D9ED"/>
</g>
<g opacity="0.8">
<path opacity="0.8" d="M68.2201 103.172H66.4502V105.753H68.2201V103.172Z" fill="#C4D9ED"/>
<path opacity="0.8" d="M64.9108 103.172H63.1411V105.753H64.9108V103.172Z" fill="#C4D9ED"/>
<path opacity="0.8" d="M61.6751 103.172H59.9053V105.753H61.6751V103.172Z" fill="#C4D9ED"/>
<path opacity="0.8" d="M58.6073 103.172H56.8374V105.753H58.6073V103.172Z" fill="#C4D9ED"/>
</g>
</g>
</g>
<g opacity="0.8">
<g opacity="0.8">
<g opacity="0.8">
<path opacity="0.8" d="M116.022 107.656H114.252V110.237H116.022V107.656Z" fill="#C4D9ED"/>
<path opacity="0.8" d="M112.712 107.656H110.942V110.237H112.712V107.656Z" fill="#C4D9ED"/>
<path opacity="0.8" d="M109.476 107.656H107.707V110.237H109.476V107.656Z" fill="#C4D9ED"/>
<path opacity="0.8" d="M106.408 107.656H104.639V110.237H106.408V107.656Z" fill="#C4D9ED"/>
<path opacity="0.8" d="M103.282 107.656H101.512V110.237H103.282V107.656Z" fill="#C4D9ED"/>
</g>
<g opacity="0.8">
<path opacity="0.8" d="M100.12 107.656H98.3506V110.237H100.12V107.656Z" fill="#C4D9ED"/>
<path opacity="0.8" d="M96.8103 107.656H95.0405V110.237H96.8103V107.656Z" fill="#C4D9ED"/>
<path opacity="0.8" d="M93.575 107.656H91.8052V110.237H93.575V107.656Z" fill="#C4D9ED"/>
<path opacity="0.8" d="M90.5071 107.656H88.7373V110.237H90.5071V107.656Z" fill="#C4D9ED"/>
<path opacity="0.8" d="M87.3805 107.656H85.6108V110.237H87.3805V107.656Z" fill="#C4D9ED"/>
</g>
</g>
<g opacity="0.8">
<g opacity="0.8">
<path opacity="0.8" d="M84.122 107.656H82.3521V110.237H84.122V107.656Z" fill="#C4D9ED"/>
<path opacity="0.8" d="M80.8123 107.656H79.0425V110.237H80.8123V107.656Z" fill="#C4D9ED"/>
<path opacity="0.8" d="M77.5764 107.656H75.8066V110.237H77.5764V107.656Z" fill="#C4D9ED"/>
<path opacity="0.8" d="M74.5086 107.656H72.7388V110.237H74.5086V107.656Z" fill="#C4D9ED"/>
<path opacity="0.8" d="M71.382 107.656H69.6123V110.237H71.382V107.656Z" fill="#C4D9ED"/>
</g>
<g opacity="0.8">
<path opacity="0.8" d="M68.2201 107.656H66.4502V110.237H68.2201V107.656Z" fill="#C4D9ED"/>
<path opacity="0.8" d="M64.9108 107.656H63.1411V110.237H64.9108V107.656Z" fill="#C4D9ED"/>
<path opacity="0.8" d="M61.6751 107.656H59.9053V110.237H61.6751V107.656Z" fill="#C4D9ED"/>
<path opacity="0.8" d="M58.6073 107.656H56.8374V110.237H58.6073V107.656Z" fill="#C4D9ED"/>
</g>
</g>
</g>
</g>
</g>
<path d="M128.432 115.741H87.4111V138.634H128.432V115.741Z" fill="#C4D9ED"/>
<path d="M159.537 127.188H118.516V138.634H159.537V127.188Z" fill="#C4D9ED"/>
<path d="M84.1228 119.308V138.634H64.7404C64.7248 138.606 64.7059 138.572 64.6841 138.534C64.6532 138.478 64.6169 138.412 64.575 138.337C64.5614 138.311 64.5459 138.284 64.5296 138.255C64.4741 138.152 64.4114 138.037 64.3415 137.904C64.2562 137.743 64.1608 137.56 64.0553 137.356V137.355C63.6628 136.594 63.1423 135.538 62.5508 134.227C62.3564 133.797 62.1557 133.338 61.9476 132.853C61.865 132.66 61.7823 132.463 61.6978 132.262V132.261C61.616 132.067 61.5342 131.868 61.4526 131.665C61.4499 131.659 61.4471 131.652 61.4444 131.645C61.388 131.506 61.3308 131.365 61.2736 131.221C61.2136 131.075 61.1546 130.926 61.0945 130.776C60.7893 130 60.4769 129.175 60.1661 128.306C60.1579 128.284 60.1497 128.26 60.1415 128.237C60.1415 128.237 60.1415 128.237 60.1415 128.237C59.9379 127.668 59.7354 127.08 59.5345 126.475C59.4238 126.142 59.3147 125.805 59.2055 125.462C59.1992 125.441 59.192 125.421 59.1855 125.398C59.1375 125.246 59.0902 125.094 59.042 124.939C59.0021 124.81 58.9621 124.68 58.9231 124.549C58.8413 124.281 58.7595 124.009 58.6788 123.735C58.5752 123.382 58.4724 123.024 58.3717 122.662C58.2354 122.171 58.1019 121.671 57.9719 121.162C57.9329 121.01 57.8937 120.857 57.8556 120.703C57.7413 120.244 57.6286 119.779 57.5195 119.308H84.1228V119.308Z" fill="#C4D9ED"/>
<path d="M125.692 118.422H118.049V122.662H125.692V118.422Z" fill="#D5E7F7"/>
<path d="M115.881 118.422H108.238V122.662H115.881V118.422Z" fill="#D5E7F7"/>
<path d="M106.256 118.422H98.6138V122.662H106.256V118.422Z" fill="#D5E7F7"/>
<path d="M96.8186 118.422H89.1758V122.662H96.8186V118.422Z" fill="#D5E7F7"/>
<path d="M87.8373 115.741H83.8999V138.831H87.8373V115.741Z" fill="#ADC9E0"/>
<path d="M147.37 74.891H147.157V76.6834H147.37V74.891Z" fill="#DCEAF9"/>
<path d="M139.71 74.891H139.497V76.6834H139.71V74.891Z" fill="#DCEAF9"/>
<path d="M56.1147 111.208C56.2101 112.047 56.3209 112.875 56.4436 113.69C56.5762 114.573 56.7243 115.441 56.8852 116.293C57.0306 117.066 57.1868 117.826 57.3513 118.571C57.3721 118.665 57.3931 118.759 57.4149 118.853C57.4486 119.005 57.483 119.157 57.5185 119.308C57.6276 119.779 57.7403 120.244 57.8546 120.704C57.8927 120.857 57.9319 121.01 57.9709 121.162C58.1009 121.671 58.2344 122.171 58.3707 122.662C58.4715 123.024 58.5743 123.382 58.6778 123.735C58.7586 124.009 58.8405 124.281 58.9221 124.55C58.9611 124.68 59.0011 124.81 59.041 124.94C59.0892 125.094 59.1365 125.246 59.1845 125.398C59.191 125.421 59.1982 125.442 59.2045 125.462C59.3137 125.805 59.4227 126.143 59.5335 126.476C59.7343 127.081 59.9369 127.668 60.1405 128.237C60.1405 128.238 60.1405 128.238 60.1405 128.238C60.1486 128.26 60.1568 128.284 60.1651 128.306C60.4759 129.176 60.7883 130 61.0935 130.776C61.1536 130.927 61.2126 131.075 61.2726 131.222C61.3298 131.365 61.3869 131.506 61.4434 131.646C61.4461 131.652 61.4489 131.659 61.4516 131.665V111.208H56.1147V111.208Z" fill="#D5E7F7"/>
<path d="M61.4522 118.853V131.665C61.4495 131.659 61.4467 131.652 61.444 131.645C61.3876 131.506 61.3304 131.365 61.2732 131.221C61.2132 131.075 61.1542 130.926 61.0941 130.776C60.7889 130 60.4765 129.175 60.1657 128.306C60.1575 128.283 60.1493 128.26 60.1411 128.237C60.1411 128.237 60.1411 128.237 60.1411 128.236C59.9375 127.668 59.735 127.08 59.5341 126.475C59.4234 126.142 59.3143 125.805 59.2051 125.462C59.1988 125.441 59.1916 125.421 59.1851 125.398C59.1371 125.246 59.0898 125.094 59.0416 124.939C59.0017 124.81 58.9617 124.68 58.9227 124.549C58.8409 124.281 58.7591 124.009 58.6784 123.734C58.5748 123.382 58.472 123.024 58.3713 122.662C58.235 122.171 58.1015 121.671 57.9715 121.162C57.9325 121.01 57.8933 120.857 57.8552 120.703C57.7409 120.244 57.6282 119.779 57.5191 119.308C57.4836 119.156 57.4492 119.005 57.4155 118.853H61.4522V118.853Z" fill="#D5E7F7"/>
<path d="M61.4521 116.293V122.662H58.3713C58.235 122.171 58.1015 121.671 57.9715 121.162C57.9325 121.01 57.8933 120.857 57.8552 120.704C57.7408 120.244 57.6282 119.779 57.5191 119.308C57.4836 119.156 57.4492 119.005 57.4155 118.853C57.3937 118.759 57.3728 118.665 57.3519 118.571C57.1874 117.826 57.0312 117.066 56.8857 116.293H61.4521Z" fill="#C4D9ED"/>
<path d="M59.5352 124.55V126.475C59.4245 126.143 59.3154 125.805 59.2062 125.462C59.1999 125.441 59.1927 125.421 59.1862 125.398C59.1383 125.246 59.0909 125.094 59.0427 124.94C59.0028 124.81 58.9628 124.68 58.9238 124.55H59.5352Z" fill="#C4D9ED"/>
<path d="M59.3035 118.082H58.0879V120.258H59.3035V118.082Z" fill="#ADC9E0"/>
<path d="M179.937 118.853H151.771V138.448H179.937V118.853Z" fill="#D5E7F7"/>
<path d="M179.937 116.293H151.771V122.662H179.937V116.293Z" fill="#C4D9ED"/>
<path d="M178.019 124.549H176.572V126.659H178.019V124.549Z" fill="#C4D9ED"/>
<path d="M175.313 124.549H173.867V126.659H175.313V124.549Z" fill="#C4D9ED"/>
<path d="M172.669 124.549H171.223V126.659H172.669V124.549Z" fill="#C4D9ED"/>
<path d="M170.162 124.549H168.716V126.659H170.162V124.549Z" fill="#C4D9ED"/>
<path d="M167.607 124.549H166.16V126.659H167.607V124.549Z" fill="#C4D9ED"/>
<path d="M165.022 124.549H163.575V126.659H165.022V124.549Z" fill="#C4D9ED"/>
<path d="M162.317 124.549H160.87V126.659H162.317V124.549Z" fill="#C4D9ED"/>
<path d="M159.672 124.549H158.226V126.659H159.672V124.549Z" fill="#C4D9ED"/>
<path d="M157.165 124.549H155.718V126.659H157.165V124.549Z" fill="#C4D9ED"/>
<path d="M154.609 124.549H153.163V126.659H154.609V124.549Z" fill="#C4D9ED"/>
<path d="M178.019 128.271H176.572V130.38H178.019V128.271Z" fill="#C4D9ED"/>
<path d="M175.313 128.271H173.867V130.38H175.313V128.271Z" fill="#C4D9ED"/>
<path d="M172.669 128.271H171.223V130.38H172.669V128.271Z" fill="#C4D9ED"/>
<path d="M170.162 128.271H168.716V130.38H170.162V128.271Z" fill="#C4D9ED"/>
<path d="M167.607 128.271H166.16V130.38H167.607V128.271Z" fill="#C4D9ED"/>
<path d="M165.022 128.271H163.575V130.38H165.022V128.271Z" fill="#C4D9ED"/>
<path d="M162.317 128.271H160.87V130.38H162.317V128.271Z" fill="#C4D9ED"/>
<path d="M159.672 128.271H158.226V130.38H159.672V128.271Z" fill="#C4D9ED"/>
<path d="M157.165 128.271H155.718V130.38H157.165V128.271Z" fill="#C4D9ED"/>
<path d="M154.609 128.271H153.163V130.38H154.609V128.271Z" fill="#C4D9ED"/>
<path d="M178.019 131.936H176.572V134.045H178.019V131.936Z" fill="#C4D9ED"/>
<path d="M175.313 131.936H173.867V134.045H175.313V131.936Z" fill="#C4D9ED"/>
<path d="M172.669 131.936H171.223V134.045H172.669V131.936Z" fill="#C4D9ED"/>
<path d="M170.162 131.936H168.716V134.045H170.162V131.936Z" fill="#C4D9ED"/>
<path d="M167.607 131.936H166.16V134.045H167.607V131.936Z" fill="#C4D9ED"/>
<path d="M165.022 131.936H163.575V134.045H165.022V131.936Z" fill="#C4D9ED"/>
<path d="M162.317 131.936H160.87V134.045H162.317V131.936Z" fill="#C4D9ED"/>
<path d="M159.672 131.936H158.226V134.045H159.672V131.936Z" fill="#C4D9ED"/>
<path d="M157.165 131.936H155.718V134.045H157.165V131.936Z" fill="#C4D9ED"/>
<path d="M154.609 131.936H153.163V134.045H154.609V131.936Z" fill="#C4D9ED"/>
<path d="M177.788 118.082H176.573V120.258H177.788V118.082Z" fill="#ADC9E0"/>
<path d="M165.721 118.082H164.505V120.258H165.721V118.082Z" fill="#ADC9E0"/>
<path d="M156.121 118.082H154.905V120.258H156.121V118.082Z" fill="#ADC9E0"/>
<path d="M209.871 118.853H181.706V138.448H209.871V118.853Z" fill="#D5E7F7"/>
<path d="M209.871 116.293H181.706V122.662H209.871V116.293Z" fill="#C4D9ED"/>
<path d="M207.955 124.549H206.508V126.659H207.955V124.549Z" fill="#C4D9ED"/>
<path d="M205.25 124.549H203.803V126.659H205.25V124.549Z" fill="#C4D9ED"/>
<path d="M202.605 124.549H201.159V126.659H202.605V124.549Z" fill="#C4D9ED"/>
<path d="M200.098 124.549H198.651V126.659H200.098V124.549Z" fill="#C4D9ED"/>
<path d="M197.542 124.549H196.096V126.659H197.542V124.549Z" fill="#C4D9ED"/>
<path d="M194.959 124.549H193.513V126.659H194.959V124.549Z" fill="#C4D9ED"/>
<path d="M192.254 124.549H190.807V126.659H192.254V124.549Z" fill="#C4D9ED"/>
<path d="M189.609 124.549H188.162V126.659H189.609V124.549Z" fill="#C4D9ED"/>
<path d="M187.101 124.549H185.655V126.659H187.101V124.549Z" fill="#C4D9ED"/>
<path d="M184.546 124.549H183.1V126.659H184.546V124.549Z" fill="#C4D9ED"/>
<path d="M207.955 128.271H206.508V130.38H207.955V128.271Z" fill="#C4D9ED"/>
<path d="M205.25 128.271H203.803V130.38H205.25V128.271Z" fill="#C4D9ED"/>
<path d="M202.605 128.271H201.159V130.38H202.605V128.271Z" fill="#C4D9ED"/>
<path d="M200.098 128.271H198.651V130.38H200.098V128.271Z" fill="#C4D9ED"/>
<path d="M197.542 128.271H196.096V130.38H197.542V128.271Z" fill="#C4D9ED"/>
<path d="M194.959 128.271H193.513V130.38H194.959V128.271Z" fill="#C4D9ED"/>
<path d="M192.254 128.271H190.807V130.38H192.254V128.271Z" fill="#C4D9ED"/>
<path d="M189.609 128.271H188.162V130.38H189.609V128.271Z" fill="#C4D9ED"/>
<path d="M187.101 128.271H185.655V130.38H187.101V128.271Z" fill="#C4D9ED"/>
<path d="M184.546 128.271H183.1V130.38H184.546V128.271Z" fill="#C4D9ED"/>
<path d="M207.955 131.936H206.508V134.045H207.955V131.936Z" fill="#C4D9ED"/>
<path d="M205.25 131.936H203.803V134.045H205.25V131.936Z" fill="#C4D9ED"/>
<path d="M202.605 131.936H201.159V134.045H202.605V131.936Z" fill="#C4D9ED"/>
<path d="M200.098 131.936H198.651V134.045H200.098V131.936Z" fill="#C4D9ED"/>
<path d="M197.542 131.936H196.096V134.045H197.542V131.936Z" fill="#C4D9ED"/>
<path d="M194.959 131.936H193.513V134.045H194.959V131.936Z" fill="#C4D9ED"/>
<path d="M192.254 131.936H190.807V134.045H192.254V131.936Z" fill="#C4D9ED"/>
<path d="M189.609 131.936H188.162V134.045H189.609V131.936Z" fill="#C4D9ED"/>
<path d="M187.101 131.936H185.655V134.045H187.101V131.936Z" fill="#C4D9ED"/>
<path d="M184.546 131.936H183.1V134.045H184.546V131.936Z" fill="#C4D9ED"/>
<path d="M207.722 118.082H206.507V120.258H207.722V118.082Z" fill="#ADC9E0"/>
<path d="M195.655 118.082H194.439V120.258H195.655V118.082Z" fill="#ADC9E0"/>
<path d="M186.055 118.082H184.84V120.258H186.055V118.082Z" fill="#ADC9E0"/>
<path d="M268.824 118.853H240.658V138.448H268.824V118.853Z" fill="#D5E7F7"/>
<path d="M268.824 116.293H240.658V122.662H268.824V116.293Z" fill="#C4D9ED"/>
<path d="M266.907 124.549H265.46V126.659H266.907V124.549Z" fill="#C4D9ED"/>
<path d="M264.201 124.549H262.754V126.659H264.201V124.549Z" fill="#C4D9ED"/>
<path d="M261.557 124.549H260.111V126.659H261.557V124.549Z" fill="#C4D9ED"/>
<path d="M259.05 124.549H257.603V126.659H259.05V124.549Z" fill="#C4D9ED"/>
<path d="M256.494 124.549H255.048V126.659H256.494V124.549Z" fill="#C4D9ED"/>
<path d="M253.91 124.549H252.464V126.659H253.91V124.549Z" fill="#C4D9ED"/>
<path d="M251.205 124.549H249.758V126.659H251.205V124.549Z" fill="#C4D9ED"/>
<path d="M248.561 124.549H247.114V126.659H248.561V124.549Z" fill="#C4D9ED"/>
<path d="M246.053 124.549H244.606V126.659H246.053V124.549Z" fill="#C4D9ED"/>
<path d="M243.498 124.549H242.051V126.659H243.498V124.549Z" fill="#C4D9ED"/>
<path d="M266.907 128.271H265.46V130.38H266.907V128.271Z" fill="#C4D9ED"/>
<path d="M264.201 128.271H262.754V130.38H264.201V128.271Z" fill="#C4D9ED"/>
<path d="M261.557 128.271H260.111V130.38H261.557V128.271Z" fill="#C4D9ED"/>
<path d="M259.05 128.271H257.603V130.38H259.05V128.271Z" fill="#C4D9ED"/>
<path d="M256.494 128.271H255.048V130.38H256.494V128.271Z" fill="#C4D9ED"/>
<path d="M253.91 128.271H252.464V130.38H253.91V128.271Z" fill="#C4D9ED"/>
<path d="M251.205 128.271H249.758V130.38H251.205V128.271Z" fill="#C4D9ED"/>
<path d="M248.561 128.271H247.114V130.38H248.561V128.271Z" fill="#C4D9ED"/>
<path d="M246.053 128.271H244.606V130.38H246.053V128.271Z" fill="#C4D9ED"/>
<path d="M243.498 128.271H242.051V130.38H243.498V128.271Z" fill="#C4D9ED"/>
<path d="M266.907 131.936H265.46V134.045H266.907V131.936Z" fill="#C4D9ED"/>
<path d="M264.201 131.936H262.754V134.045H264.201V131.936Z" fill="#C4D9ED"/>
<path d="M261.557 131.936H260.111V134.045H261.557V131.936Z" fill="#C4D9ED"/>
<path d="M259.05 131.936H257.603V134.045H259.05V131.936Z" fill="#C4D9ED"/>
<path d="M256.494 131.936H255.048V134.045H256.494V131.936Z" fill="#C4D9ED"/>
<path d="M253.91 131.936H252.464V134.045H253.91V131.936Z" fill="#C4D9ED"/>
<path d="M251.205 131.936H249.758V134.045H251.205V131.936Z" fill="#C4D9ED"/>
<path d="M248.561 131.936H247.114V134.045H248.561V131.936Z" fill="#C4D9ED"/>
<path d="M246.053 131.936H244.606V134.045H246.053V131.936Z" fill="#C4D9ED"/>
<path d="M243.498 131.936H242.051V134.045H243.498V131.936Z" fill="#C4D9ED"/>
<path d="M266.675 118.082H265.459V120.258H266.675V118.082Z" fill="#ADC9E0"/>
<path d="M254.607 118.082H253.392V120.258H254.607V118.082Z" fill="#ADC9E0"/>
<path d="M245.008 118.082H243.792V120.258H245.008V118.082Z" fill="#ADC9E0"/>
<path d="M237.661 134.182C237.661 134.066 237.661 133.949 237.658 133.833C237.658 133.121 237.654 132.396 237.651 131.794C237.645 130.826 237.323 129.941 236.963 129.252C236.494 128.364 235.963 127.802 235.963 127.802L234.86 126.88L231.156 123.798L231.135 123.75C231.22 123.66 231.296 123.559 231.351 123.444C231.431 123.278 231.476 123.089 231.476 122.892V120.684C231.476 120.005 230.939 119.446 230.28 119.446H229.898C229.675 119.446 229.467 119.512 229.288 119.624L226.745 113.942C226.591 113.185 226.385 112.493 226.159 111.877C225.465 109.984 223.496 108.694 221.259 108.694H221.184H208.091H202.108V108.695H202.107V108.728H176.863V136.85H180.003C180.281 138.303 181.131 139.37 182.149 139.37C182.149 139.37 183.391 139.37 183.564 139.37C184.582 139.37 185.432 138.303 185.71 136.85H192.258C192.536 138.303 193.386 139.37 194.404 139.37C194.404 139.37 195.646 139.37 195.819 139.37C196.837 139.37 197.687 138.303 197.965 136.85H202.107H202.934H205.094H212.67C212.622 136.56 212.599 136.261 212.599 135.952C212.599 135.929 212.605 135.909 212.606 135.887L212.67 136.85H213.344C213.622 138.303 214.472 139.37 215.491 139.37C215.491 139.37 216.732 139.37 216.905 139.37C217.923 139.37 218.774 138.303 219.051 136.85H221.358H229.609C229.887 138.303 230.737 139.37 231.755 139.37C231.755 139.37 232.997 139.37 233.17 139.37C234.194 139.37 235.048 138.292 235.321 136.825C236.631 136.702 237.664 135.573 237.661 134.182Z" fill="#ABC6DD"/>
<path d="M200.065 89.5681V95.3898C200.065 95.9071 199.946 96.4068 199.735 96.8451C199.218 97.915 198.141 98.6513 196.912 98.6513H195.904C194.175 98.6513 192.751 97.1872 192.751 95.3898V89.5681C192.751 88.9542 192.92 88.3845 193.209 87.8933C193.209 87.8846 193.209 87.8846 193.209 87.8846C193.768 86.9378 194.768 86.3063 195.904 86.3063H196.912C198.65 86.3064 200.065 87.7796 200.065 89.5681Z" fill="#2DB878"/>
<path opacity="0.3" d="M199.735 96.845C199.218 97.9149 198.141 98.6513 196.912 98.6513H195.904C194.175 98.6513 192.751 97.1872 192.751 95.3897V89.5681C192.751 88.9541 192.92 88.3844 193.209 87.8932C193.268 88.253 194.607 96.2401 199.735 96.845Z" fill="#2DB878"/>
<path d="M150.082 132.179H165.667V115.907H149.408L150.082 132.179Z" fill="#535353"/>
<path d="M199.224 97.7826L122.657 99.7356V57.967H172.936C177.729 57.967 182.119 60.7427 184.304 65.1555L187.595 71.799L199.224 97.7826Z" fill="#3EC285"/>
<path d="M155.729 129.531C155.729 133.949 157.931 138.82 157.931 138.82C157.931 138.82 161.205 138.82 161.66 138.82C164.936 138.82 167.591 134.661 167.591 129.531C167.591 124.401 161.207 120.242 157.931 120.242C154.656 120.242 155.729 124.401 155.729 129.531Z" fill="#33C783"/>
<path d="M157.931 138.82C161.206 138.82 163.862 134.661 163.862 129.531C163.862 124.401 161.206 120.242 157.931 120.242C154.655 120.242 152 124.401 152 129.531C152 134.661 154.655 138.82 157.931 138.82Z" fill="#535353"/>
<path d="M158.006 136.528C160.473 136.528 162.473 133.395 162.473 129.531C162.473 125.667 160.473 122.534 158.006 122.534C155.538 122.534 153.538 125.667 153.538 129.531C153.538 133.395 155.538 136.528 158.006 136.528Z" fill="#2DB878"/>
<path d="M198.598 129.531C198.598 133.949 200.801 138.82 200.801 138.82C200.801 138.82 204.074 138.82 204.529 138.82C207.805 138.82 210.461 134.661 210.461 129.531C210.461 124.401 204.077 120.242 200.801 120.242C197.525 120.242 198.598 124.401 198.598 129.531Z" fill="#33C783"/>
<path d="M200.801 138.82C204.076 138.82 206.732 134.661 206.732 129.531C206.732 124.401 204.076 120.242 200.801 120.242C197.525 120.242 194.87 124.401 194.87 129.531C194.87 134.661 197.525 138.82 200.801 138.82Z" fill="#535353"/>
<path d="M200.875 136.528C203.343 136.528 205.343 133.395 205.343 129.531C205.343 125.667 203.343 122.534 200.875 122.534C198.408 122.534 196.408 125.667 196.408 129.531C196.408 133.395 198.408 136.528 200.875 136.528Z" fill="#2DB878"/>
<path d="M100.15 129.531C100.15 133.949 102.352 138.82 102.352 138.82C102.352 138.82 105.626 138.82 106.081 138.82C109.356 138.82 112.012 134.661 112.012 129.531C112.012 124.401 105.628 120.242 102.352 120.242C99.0764 120.242 100.15 124.401 100.15 129.531Z" fill="#33C783"/>
<path d="M102.352 138.82C105.628 138.82 108.283 134.661 108.283 129.531C108.283 124.401 105.628 120.242 102.352 120.242C99.0763 120.242 96.4209 124.401 96.4209 129.531C96.4209 134.661 99.0763 138.82 102.352 138.82Z" fill="#535353"/>
<path d="M102.427 136.528C104.894 136.528 106.895 133.395 106.895 129.531C106.895 125.667 104.894 122.534 102.427 122.534C99.9596 122.534 97.9595 125.667 97.9595 129.531C97.9595 133.395 99.9596 136.528 102.427 136.528Z" fill="#2DB878"/>
<path d="M216.366 125.147C216.374 129.031 213.332 132.179 209.586 132.179H165.667C165.794 131.416 165.862 130.627 165.862 129.811C165.862 123.805 162.378 118.931 158.09 118.931C153.793 118.931 150.31 123.805 150.31 129.811C150.31 130.627 150.369 131.416 150.496 132.179H124.833C124.833 132.179 123.799 120.325 123.926 114.38C124.028 109.208 124.028 99.0721 123.731 96.5999C123.731 96.2314 148.479 96.1875 154.725 96.1615C155.573 96.1525 156.081 96.1525 156.132 96.1525L156.217 96.2139L156.31 96.2841C157.463 97.117 163.921 101.799 167.93 104.543C171.464 106.954 197.551 107.936 207.78 108.235C210.323 108.305 211.891 108.331 211.891 108.331C211.891 108.331 213.289 109.813 214.527 112.154C215.476 113.969 216.323 116.301 216.34 118.852C216.349 120.439 216.357 122.35 216.357 124.227C216.366 124.533 216.366 124.84 216.366 125.147Z" fill="#3EC285"/>
<path d="M193.05 96.1524H158.64C157.844 96.1524 157.123 95.6705 156.793 94.9251L148.275 75.3207C147.995 74.6807 148.453 73.9529 149.131 73.9529H185.431C186.227 73.9529 186.956 74.444 187.278 75.2067L193.38 89.6293L194.906 93.2329C195.482 94.6095 194.508 96.1524 193.05 96.1524Z" fill="#A2C2DD"/>
<path d="M177.024 124.226C177.015 124.84 176.99 125.419 176.956 125.936C176.71 129.347 173.396 132.179 173.396 132.179H165.667C165.794 131.416 165.862 130.627 165.862 129.811C165.862 127.769 165.455 125.857 164.76 124.226C163.395 121.053 160.921 118.931 158.09 118.931C155.251 118.931 152.776 121.053 151.411 124.226C150.717 125.857 150.31 127.768 150.31 129.811C150.31 130.627 150.369 131.416 150.496 132.179H122.655V57.9696H145.004V72.699C145.004 72.699 151.708 88.9893 154.725 96.1615C155.471 97.9498 155.996 99.1687 156.132 99.4317C156.802 100.756 172.379 108.909 174.956 111.312C176.388 112.644 177.1 119.571 177.024 124.226Z" fill="#2DB878"/>
<path d="M145.254 77.4797L152.584 96.1557H140.007C140.007 96.1557 137.427 95.7088 137.096 90.2547C136.743 84.432 136.744 74.3836 136.744 74.3836L142.264 74.3561C144.368 74.685 144.698 75.8805 145.254 77.4797Z" fill="#A2C2DD"/>
<path d="M211.891 108.331H171.108L156.217 96.2138L156.132 96.1523H197.271L208.984 105.902L211.891 108.331Z" fill="#2DB878"/>
<path d="M214.527 112.153C214.29 112.557 213.985 112.82 213.654 112.881L207.933 113.977C207.45 114.074 207.077 113.206 207.204 112.311L207.764 108.331L207.781 108.234L207.891 107.419C207.992 106.717 208.289 106.183 208.653 106.034L208.984 105.902L211.891 108.331C211.891 108.331 213.29 109.812 214.527 112.153Z" fill="#C4D9ED"/>
<path d="M176.388 115.45L172.701 115.073C171.413 114.942 170.371 113.942 170.142 112.627L169.294 107.805C169.277 107.726 169.269 107.656 169.277 107.577C171.905 109.137 174.117 110.531 174.956 111.312C175.566 111.882 176.049 113.46 176.388 115.45Z" fill="#A8302D"/>
<path d="M183.389 116.169L176.396 115.45H176.388L172.701 115.073C171.413 114.941 170.371 113.942 170.142 112.627L169.294 107.805C169.277 107.726 169.269 107.656 169.277 107.577V107.568C169.235 106.551 170.133 105.727 171.142 105.937L182.033 108.225C182.728 108.375 183.278 108.909 183.465 109.611L184.745 114.503C184.982 115.397 184.279 116.265 183.389 116.169Z" fill="#C4D9ED"/>
<path d="M187.597 71.7982H145.11C145.11 71.7982 144.946 68.986 143.88 65.7739C142.931 62.9374 141.29 59.7736 138.419 57.9677H173.138C178.797 57.9677 183.812 61.095 185.804 65.7739C185.898 65.9678 185.98 66.1616 186.05 66.3558C186.648 67.9798 187.187 69.798 187.597 71.7982Z" fill="#2DB878"/>
<path d="M176.396 115.45L172.701 115.073C171.413 114.942 170.371 113.942 170.142 112.627L169.294 107.805C169.277 107.726 169.269 107.647 169.277 107.568C171.905 109.137 174.117 110.532 174.956 111.312C175.566 111.882 176.049 113.46 176.396 115.45Z" fill="#A2C2DD"/>
<path opacity="0.3" d="M216.366 125.147C216.374 129.031 213.188 132.179 209.255 132.179H165.667C165.794 131.416 165.862 130.627 165.862 129.811C165.862 127.769 165.455 125.857 164.76 124.226H216.357C216.366 124.533 216.366 124.84 216.366 125.147Z" fill="#8E2323"/>
<path opacity="0.3" d="M150.31 129.811C150.31 130.627 150.369 131.416 150.496 132.179H122.655V124.226H151.411C150.717 125.857 150.31 127.769 150.31 129.811Z" fill="#8E2323"/>
<path opacity="0.3" d="M187.652 108.674H204.33C204.862 108.674 205.27 109.417 205.188 110.241L204.596 116.236C204.509 117.118 204.024 117.769 203.454 117.769H189.714C188.833 117.769 188.056 116.867 187.8 115.548L186.81 110.451C186.638 109.566 187.061 108.674 187.652 108.674Z" fill="#8E2323"/>
<path d="M193.38 89.6293C173.709 88.586 160.403 77.6968 156.386 73.9529H185.431C186.227 73.9529 186.956 74.444 187.278 75.2067L193.38 89.6293Z" fill="#C4D9ED"/>
<path d="M130.523 57.9671H56.1177V132.184H130.523V57.9671Z" fill="#33C783"/>
<path d="M148.853 86.5661C148.853 86.5661 149.49 94.1141 145.888 96.1813H152.617L148.853 86.5661Z" fill="#2DB878"/>
<path d="M149.841 91.6174C149.841 91.6174 148.322 90.4988 148.191 89.5714V94.8505H150.18L149.841 91.6174Z" fill="#2DB878"/>
<path d="M148.191 89.5681V95.3898C148.191 95.9071 148.072 96.4068 147.861 96.8451C147.344 97.915 146.267 98.6513 145.038 98.6513H144.03C142.301 98.6513 140.877 97.1872 140.877 95.3898V89.5681C140.877 88.9542 141.046 88.3845 141.335 87.8933C141.335 87.8846 141.335 87.8846 141.335 87.8846C141.894 86.9378 142.894 86.3063 144.03 86.3063H145.038C146.776 86.3064 148.191 87.7796 148.191 89.5681Z" fill="#3EC285"/>
<path opacity="0.3" d="M147.861 96.845C147.344 97.9149 146.267 98.6513 145.038 98.6513H144.03C142.301 98.6513 140.877 97.1872 140.877 95.3897V89.5681C140.877 88.9541 141.046 88.3844 141.335 87.8932C141.394 88.253 142.733 96.2401 147.861 96.845Z" fill="#2DB878"/>
<path d="M80.4188 132.184H62.1164C61.7296 130.475 60.5656 118.305 70.8224 118.305C80.1435 118.304 80.8289 129.408 80.4188 132.184Z" fill="#535353"/>
<path d="M67.8459 129.531C67.8459 133.949 70.0484 138.82 70.0484 138.82C70.0484 138.82 73.3221 138.82 73.7769 138.82C77.0526 138.82 79.7081 134.661 79.7081 129.531C79.7081 124.401 73.3241 120.242 70.0484 120.242C66.7728 120.242 67.8459 124.401 67.8459 129.531Z" fill="#33C783"/>
<path d="M70.0482 138.82C73.3238 138.82 75.9793 134.661 75.9793 129.531C75.9793 124.401 73.3238 120.242 70.0482 120.242C66.7726 120.242 64.1172 124.401 64.1172 129.531C64.1172 134.661 66.7726 138.82 70.0482 138.82Z" fill="#535353"/>
<path d="M70.1233 136.528C72.5906 136.528 74.5908 133.395 74.5908 129.531C74.5908 125.667 72.5906 122.534 70.1233 122.534C67.6559 122.534 65.6558 125.667 65.6558 129.531C65.6558 133.395 67.6559 136.528 70.1233 136.528Z" fill="#2DB878"/>
<path opacity="0.3" d="M187.598 71.7983H145.111C145.111 71.7983 144.947 68.9861 143.88 65.774H185.805C185.899 65.9679 185.981 66.1617 186.051 66.3559C186.649 67.9799 187.188 69.7981 187.598 71.7983Z" fill="#65DAA4"/>
<path d="M151.411 12.0614C143.736 12.0614 137.513 18.4983 137.513 26.4389C137.513 34.3793 151.411 52.0325 151.411 52.0325C151.411 52.0325 165.309 34.3793 165.309 26.4389C165.309 18.4983 159.087 12.0614 151.411 12.0614ZM151.411 33.0131C147.823 33.0131 144.915 30.0042 144.915 26.2926C144.915 22.5811 147.823 19.5724 151.411 19.5724C154.999 19.5724 157.908 22.5811 157.908 26.2926C157.908 30.0042 154.999 33.0131 151.411 33.0131Z" fill="#2DB878"/>
<path d="M123.732 103.137C123.655 103.137 123.579 103.103 123.526 103.037L123.193 102.62C123.1 102.502 123.116 102.328 123.229 102.231C123.343 102.134 123.511 102.151 123.605 102.269L123.938 102.685C124.031 102.802 124.016 102.976 123.902 103.074C123.852 103.116 123.792 103.137 123.732 103.137ZM122.947 102.152C122.87 102.152 122.793 102.117 122.741 102.051C122.592 101.863 122.441 101.673 122.289 101.48C122.196 101.362 122.213 101.188 122.327 101.092C122.441 100.995 122.609 101.013 122.703 101.131C122.854 101.324 123.005 101.513 123.153 101.701C123.247 101.818 123.23 101.992 123.116 102.089C123.067 102.131 123.006 102.152 122.947 102.152ZM122.047 101.01C121.969 101.01 121.892 100.975 121.839 100.908C121.692 100.718 121.542 100.527 121.392 100.333C121.3 100.214 121.318 100.04 121.434 99.9448C121.549 99.8494 121.717 99.8686 121.809 99.9877C121.958 100.181 122.107 100.372 122.254 100.56C122.347 100.679 122.329 100.853 122.215 100.949C122.165 100.99 122.106 101.01 122.047 101.01ZM121.157 99.8605C121.078 99.8605 121 99.8246 120.947 99.7559C120.801 99.5647 120.654 99.3714 120.506 99.1762C120.415 99.0561 120.435 98.8826 120.551 98.7887C120.667 98.6947 120.835 98.7157 120.926 98.8356C121.073 99.0302 121.22 99.2226 121.366 99.4131C121.457 99.5325 121.438 99.7062 121.322 99.8008C121.273 99.841 121.215 99.8605 121.157 99.8605ZM120.279 98.7007C120.199 98.7007 120.12 98.6638 120.067 98.5935C119.923 98.4003 119.778 98.205 119.632 98.008C119.543 97.8868 119.566 97.7136 119.683 97.6211C119.8 97.5285 119.967 97.5517 120.057 97.673C120.201 97.8691 120.346 98.0633 120.489 98.2556C120.58 98.3762 120.558 98.5496 120.442 98.6428C120.393 98.6818 120.336 98.7007 120.279 98.7007ZM119.415 97.5296C119.334 97.5296 119.254 97.4915 119.202 97.4194C119.059 97.2237 118.917 97.0264 118.775 96.8274C118.687 96.7048 118.712 96.532 118.83 96.4413C118.949 96.3504 119.116 96.3763 119.204 96.499C119.345 96.6968 119.487 96.8932 119.628 97.0877C119.717 97.2096 119.693 97.3826 119.575 97.4743C119.527 97.5116 119.471 97.5296 119.415 97.5296ZM118.568 96.3458C118.486 96.3458 118.404 96.3064 118.352 96.2322C118.213 96.0341 118.073 95.8343 117.934 95.6329C117.849 95.509 117.876 95.3366 117.996 95.2479C118.116 95.1592 118.283 95.1876 118.368 95.3119C118.507 95.5119 118.645 95.7103 118.784 95.9074C118.87 96.0306 118.844 96.2034 118.725 96.2931C118.677 96.3286 118.622 96.3458 118.568 96.3458ZM117.74 95.1474C117.656 95.1474 117.573 95.1064 117.521 95.0298C117.385 94.8291 117.249 94.6267 117.114 94.423C117.03 94.2974 117.061 94.1255 117.182 94.0392C117.304 93.9527 117.47 93.9845 117.553 94.1101C117.688 94.3124 117.823 94.5133 117.958 94.7127C118.043 94.8375 118.014 95.0097 117.893 95.0973C117.846 95.1311 117.793 95.1474 117.74 95.1474ZM116.933 93.9342C116.847 93.9342 116.763 93.8915 116.711 93.8124C116.579 93.6087 116.446 93.4037 116.315 93.1973C116.234 93.07 116.268 92.8988 116.391 92.8149C116.514 92.7309 116.679 92.766 116.761 92.8934C116.891 93.0983 117.022 93.3017 117.154 93.5038C117.236 93.6303 117.204 93.8019 117.082 93.8869C117.036 93.919 116.984 93.9342 116.933 93.9342ZM116.149 92.7046C116.062 92.7046 115.976 92.66 115.925 92.578C115.796 92.3715 115.668 92.1635 115.541 91.9543C115.462 91.8253 115.5 91.655 115.625 91.5737C115.749 91.4925 115.914 91.5313 115.992 91.6604C116.119 91.8679 116.246 92.0741 116.373 92.279C116.453 92.4071 116.417 92.5781 116.294 92.6606C116.249 92.6904 116.199 92.7046 116.149 92.7046ZM115.391 91.4578C115.301 91.4578 115.214 91.411 115.163 91.3261C115.039 91.1163 114.916 90.9055 114.793 90.6932C114.718 90.5623 114.759 90.393 114.885 90.3147C115.012 90.2368 115.176 90.2793 115.251 90.4102C115.373 90.6204 115.495 90.8296 115.618 91.0374C115.695 91.1674 115.656 91.3373 115.53 91.417C115.487 91.4447 115.439 91.4578 115.391 91.4578ZM114.661 90.1933C114.569 90.1933 114.48 90.1441 114.43 90.0558C114.311 89.8429 114.192 89.6289 114.075 89.4136C114.003 89.2809 114.048 89.1125 114.177 89.0376C114.305 88.9628 114.468 89.0097 114.54 89.1425C114.656 89.3555 114.774 89.5676 114.892 89.7786C114.966 89.9105 114.923 90.0793 114.795 90.156C114.753 90.1814 114.707 90.1933 114.661 90.1933ZM113.962 88.9105C113.868 88.9105 113.776 88.8585 113.728 88.7667C113.613 88.5498 113.5 88.3318 113.388 88.1128C113.319 87.9779 113.369 87.811 113.5 87.7396C113.63 87.6684 113.791 87.7198 113.86 87.8547C113.971 88.0715 114.083 88.2873 114.196 88.502C114.267 88.6358 114.219 88.8035 114.09 88.8765C114.049 88.8996 114.006 88.9105 113.962 88.9105ZM113.296 87.6049C113.198 87.6049 113.105 87.55 113.058 87.4542C112.949 87.234 112.842 87.0128 112.737 86.7907C112.672 86.6539 112.726 86.4884 112.858 86.4212C112.99 86.354 113.151 86.4103 113.216 86.5473C113.32 86.7671 113.426 86.9856 113.533 87.2035C113.6 87.3394 113.548 87.5056 113.417 87.5749C113.378 87.5953 113.336 87.6049 113.296 87.6049ZM112.667 86.2806C112.567 86.2806 112.471 86.2223 112.425 86.1223C112.323 85.8989 112.223 85.6746 112.124 85.4492C112.063 85.3103 112.123 85.1467 112.257 85.0838C112.392 85.0211 112.55 85.0825 112.61 85.2215C112.708 85.4441 112.807 85.6658 112.908 85.8867C112.971 86.0245 112.914 86.1891 112.78 86.2542C112.744 86.2722 112.705 86.2806 112.667 86.2806ZM112.079 84.9376C111.976 84.9376 111.878 84.8753 111.834 84.7711C111.739 84.5443 111.646 84.3165 111.555 84.0878C111.499 83.9468 111.564 83.7854 111.7 83.7274C111.836 83.6691 111.992 83.7365 112.048 83.8775C112.138 84.1031 112.23 84.328 112.324 84.5518C112.383 84.6917 112.32 84.8542 112.185 84.9149C112.15 84.9301 112.115 84.9376 112.079 84.9376ZM111.536 83.5752C111.43 83.5752 111.329 83.5085 111.288 83.3997C111.2 83.1695 111.115 82.9385 111.032 82.7066C110.981 82.5636 111.052 82.4048 111.19 82.3518C111.328 82.2986 111.482 82.372 111.533 82.5149C111.615 82.7435 111.699 82.9714 111.784 83.1983C111.838 83.3402 111.771 83.5005 111.633 83.556C111.601 83.569 111.569 83.5752 111.536 83.5752ZM111.042 82.194C110.932 82.194 110.828 82.1225 110.79 82.0086C110.711 81.7751 110.635 81.5408 110.561 81.3057C110.515 81.1608 110.592 81.005 110.732 80.9577C110.872 80.9107 111.023 80.9895 111.068 81.1347C111.141 81.3663 111.216 81.5971 111.294 81.8271C111.342 81.9711 111.269 82.1284 111.13 82.1786C111.101 82.189 111.071 82.194 111.042 82.194ZM110.601 80.7942C110.486 80.7942 110.381 80.7174 110.345 80.5982C110.276 80.362 110.209 80.1224 110.144 79.8858C110.105 79.739 110.188 79.5866 110.329 79.5454C110.472 79.5045 110.619 79.5901 110.658 79.7369C110.721 79.9697 110.788 80.2055 110.856 80.4378C110.899 80.5837 110.819 80.7379 110.678 80.7822C110.653 80.7903 110.626 80.7942 110.601 80.7942ZM110.217 79.3766C110.098 79.3766 109.99 79.2938 109.959 79.1691C109.899 78.9286 109.842 78.6859 109.788 78.4479C109.755 78.2995 109.844 78.151 109.988 78.1165C110.131 78.0819 110.275 78.1745 110.308 78.3228C110.361 78.5569 110.417 78.7954 110.476 79.0319C110.512 79.1796 110.426 79.3301 110.283 79.3679C110.261 79.3739 110.239 79.3766 110.217 79.3766ZM109.895 77.9424C109.771 77.9424 109.66 77.8527 109.634 77.7224C109.585 77.4793 109.539 77.2339 109.497 76.9932C109.47 76.8431 109.566 76.6993 109.711 76.672C109.856 76.6446 109.995 76.744 110.022 76.894C110.063 77.1305 110.109 77.3715 110.157 77.6102C110.186 77.7596 110.094 77.9056 109.949 77.9366C109.931 77.9406 109.913 77.9424 109.895 77.9424ZM109.64 76.4938C109.51 76.4938 109.397 76.3966 109.376 76.2604C109.339 76.0157 109.305 75.7681 109.274 75.5243C109.255 75.3731 109.358 75.2344 109.504 75.2147C109.65 75.1955 109.784 75.3017 109.803 75.4528C109.833 75.692 109.867 75.9349 109.904 76.175C109.926 76.3256 109.827 76.4668 109.681 76.4904C109.667 76.4927 109.653 76.4938 109.64 76.4938ZM109.455 75.0329C109.32 75.0329 109.205 74.9273 109.19 74.7852C109.166 74.5383 109.144 74.2888 109.126 74.0438C109.114 73.8919 109.224 73.7591 109.371 73.7475C109.517 73.7338 109.647 73.8496 109.658 74.0016C109.676 74.2417 109.697 74.4862 109.721 74.7282C109.736 74.8798 109.63 75.0156 109.483 75.0313C109.474 75.0324 109.465 75.0329 109.455 75.0329ZM109.347 73.563C109.205 73.563 109.087 73.4481 109.08 73.3004C109.069 73.0523 109.06 72.8018 109.055 72.5555C109.052 72.403 109.169 72.2769 109.317 72.2738C109.464 72.2667 109.586 72.3917 109.589 72.544C109.594 72.7852 109.602 73.0307 109.613 73.2736C109.621 73.4258 109.507 73.5554 109.36 73.5629C109.356 73.5629 109.351 73.563 109.347 73.563ZM109.318 72.0879C109.317 72.0879 109.316 72.0879 109.315 72.0879C109.168 72.0866 109.05 71.9621 109.051 71.8096C109.053 71.5613 109.058 71.3109 109.067 71.0653C109.072 70.913 109.195 70.7955 109.344 70.7997C109.491 70.8053 109.606 70.9334 109.6 71.0857C109.592 71.3259 109.586 71.5708 109.585 71.814C109.583 71.9657 109.464 72.0879 109.318 72.0879ZM109.371 70.6151C109.365 70.6151 109.359 70.6149 109.353 70.6145C109.206 70.6043 109.095 70.4728 109.104 70.3206C109.12 70.073 109.14 69.8229 109.163 69.5771C109.177 69.4253 109.308 69.3142 109.454 69.329C109.601 69.3437 109.709 69.4786 109.694 69.6304C109.672 69.8707 109.652 70.1153 109.637 70.3574C109.628 70.5033 109.51 70.6151 109.371 70.6151ZM109.508 69.1486C109.497 69.1486 109.486 69.1478 109.474 69.1463C109.328 69.127 109.225 68.9887 109.243 68.8376C109.273 68.5924 109.308 68.3446 109.345 68.1009C109.368 67.9502 109.504 67.8481 109.65 67.8713C109.796 67.8951 109.895 68.0365 109.872 68.1871C109.836 68.4255 109.802 68.6676 109.773 68.9075C109.755 69.0467 109.641 69.1486 109.508 69.1486ZM109.73 67.695C109.714 67.695 109.697 67.6935 109.68 67.6902C109.536 67.6619 109.441 67.5174 109.468 67.3676C109.512 67.1249 109.561 66.8795 109.612 66.6385C109.644 66.4894 109.786 66.3953 109.931 66.4283C110.074 66.4612 110.165 66.6085 110.134 66.7573C110.083 66.9932 110.036 67.233 109.992 67.4703C109.968 67.6028 109.856 67.695 109.73 67.695ZM110.037 66.2579C110.016 66.2579 109.994 66.2553 109.972 66.2495C109.829 66.2122 109.742 66.0621 109.778 65.9143C109.837 65.6755 109.899 65.4338 109.965 65.1955C110.005 65.0488 110.153 64.9635 110.295 65.0056C110.436 65.0474 110.519 65.2002 110.478 65.3467C110.414 65.5797 110.353 65.8161 110.296 66.0494C110.265 66.1746 110.156 66.2579 110.037 66.2579ZM110.427 64.8427C110.4 64.8427 110.373 64.8385 110.346 64.8297C110.205 64.7835 110.128 64.6283 110.172 64.483C110.244 64.2488 110.321 64.0113 110.4 63.7772C110.449 63.6334 110.601 63.5575 110.74 63.6079C110.879 63.6584 110.952 63.8159 110.904 63.9598C110.826 64.1888 110.751 64.421 110.681 64.6501C110.645 64.7676 110.54 64.8427 110.427 64.8427ZM110.897 63.4537C110.865 63.4537 110.833 63.4478 110.801 63.4353C110.664 63.3808 110.595 63.2212 110.647 63.0787C110.732 62.8492 110.822 62.617 110.914 62.388C110.971 62.2473 111.127 62.1811 111.263 62.2393C111.399 62.298 111.464 62.4596 111.407 62.6004C111.317 62.8244 111.229 63.0518 111.146 63.2763C111.105 63.3861 111.004 63.4537 110.897 63.4537ZM111.443 62.0951C111.407 62.0951 111.369 62.0873 111.334 62.0707C111.199 62.0082 111.14 61.8448 111.2 61.7057C111.298 61.4814 111.4 61.2547 111.504 61.0319C111.568 60.8947 111.728 60.8372 111.86 60.9034C111.993 60.9699 112.049 61.1349 111.984 61.2721C111.882 61.4904 111.782 61.7124 111.687 61.9321C111.642 62.0345 111.545 62.0951 111.443 62.0951ZM112.062 60.77C112.021 60.77 111.979 60.7601 111.94 60.739C111.809 60.669 111.758 60.5025 111.825 60.3671C111.934 60.1493 112.048 59.9288 112.164 59.7115C112.235 59.5781 112.397 59.5296 112.526 59.6029C112.655 59.6765 112.702 59.8443 112.631 59.978C112.518 60.191 112.406 60.4071 112.3 60.6206C112.252 60.7155 112.159 60.77 112.062 60.77ZM112.749 59.481C112.703 59.481 112.656 59.4688 112.614 59.4432C112.487 59.3663 112.444 59.1971 112.518 59.0656C112.638 58.8546 112.762 58.6405 112.889 58.429C112.966 58.2996 113.131 58.2594 113.256 58.3397C113.381 58.4199 113.42 58.5901 113.343 58.7198C113.218 58.9272 113.096 59.1373 112.979 59.3442C112.929 59.4321 112.84 59.481 112.749 59.481ZM113.497 58.2295C113.447 58.2295 113.397 58.215 113.352 58.1845C113.228 58.1012 113.193 57.9301 113.274 57.8024C113.404 57.5974 113.538 57.39 113.674 57.1857C113.757 57.0602 113.923 57.028 114.045 57.1146C114.166 57.201 114.197 57.3728 114.113 57.4985C113.98 57.6992 113.848 57.903 113.721 58.1044C113.67 58.1854 113.584 58.2295 113.497 58.2295ZM114.303 57.0166C114.249 57.0166 114.194 56.9996 114.147 56.9644C114.027 56.8751 114.001 56.7026 114.087 56.5789C114.226 56.3799 114.369 56.1792 114.513 55.9822C114.602 55.8606 114.769 55.8365 114.887 55.9284C115.004 56.0203 115.028 56.1934 114.939 56.3151C114.797 56.5089 114.656 56.7064 114.52 56.902C114.467 56.9768 114.386 57.0166 114.303 57.0166ZM115.161 55.8424C115.103 55.8424 115.045 55.8229 114.995 55.7829C114.88 55.6883 114.86 55.5148 114.952 55.3952C115.098 55.2041 115.249 55.01 115.402 54.8181C115.496 54.7005 115.664 54.6837 115.778 54.7808C115.891 54.8779 115.908 55.0518 115.814 55.1695C115.663 55.3583 115.514 55.5494 115.37 55.7376C115.318 55.8064 115.24 55.8424 115.161 55.8424ZM116.066 54.7067C116.004 54.7067 115.943 54.6848 115.892 54.64C115.78 54.5406 115.768 54.3665 115.864 54.2507C116.018 54.0647 116.175 53.879 116.336 53.6931C116.434 53.5795 116.603 53.5695 116.713 53.6712C116.823 53.7728 116.832 53.9472 116.734 54.0609C116.576 54.244 116.421 54.4272 116.269 54.6105C116.216 54.6741 116.141 54.7067 116.066 54.7067ZM117.014 53.609C116.949 53.609 116.884 53.5846 116.832 53.5353C116.724 53.4316 116.718 53.2569 116.818 53.1452C116.979 52.9654 117.143 52.7859 117.31 52.6066C117.412 52.4968 117.581 52.4933 117.688 52.5992C117.794 52.7049 117.797 52.8796 117.695 52.9895C117.53 53.1664 117.368 53.3436 117.209 53.5208C117.157 53.5794 117.085 53.609 117.014 53.609ZM118 52.5483C117.932 52.5483 117.864 52.5215 117.812 52.4677C117.708 52.3601 117.707 52.1852 117.811 52.0773C117.979 51.9038 118.148 51.7304 118.321 51.5572C118.427 51.4511 118.596 51.4537 118.698 51.5631C118.801 51.6725 118.798 51.8473 118.693 51.9534C118.522 52.1245 118.354 52.2957 118.189 52.4671C118.137 52.5211 118.069 52.5483 118 52.5483ZM119.021 51.5234C118.95 51.5234 118.879 51.4941 118.827 51.4362C118.726 51.325 118.731 51.1504 118.839 51.046C119.011 50.8784 119.186 50.7109 119.364 50.5435C119.473 50.441 119.642 50.4491 119.741 50.562C119.841 50.6748 119.832 50.8494 119.723 50.952C119.548 51.1173 119.375 51.2828 119.204 51.4485C119.153 51.4985 119.087 51.5234 119.021 51.5234ZM120.074 50.5329C120 50.5329 119.927 50.5013 119.874 50.4394C119.777 50.3251 119.787 50.1506 119.898 50.0498C120.075 49.8878 120.255 49.7261 120.438 49.5644C120.55 49.4651 120.718 49.4787 120.814 49.5946C120.91 49.7104 120.897 49.8846 120.785 49.9839C120.604 50.1438 120.426 50.3039 120.251 50.4639C120.2 50.5101 120.137 50.5329 120.074 50.5329ZM121.155 49.5755C121.078 49.5755 121.002 49.5416 120.95 49.4759C120.855 49.3587 120.871 49.1847 120.984 49.0872C121.166 48.9307 121.351 48.7743 121.537 48.6182C121.652 48.5223 121.82 48.5407 121.913 48.6592C122.005 48.7778 121.987 48.9516 121.873 49.0474C121.688 49.202 121.506 49.3568 121.325 49.5117C121.276 49.5546 121.215 49.5755 121.155 49.5755ZM122.257 48.6435C122.181 48.6435 122.105 48.6099 122.052 48.5448C121.957 48.4281 121.972 48.2539 122.085 48.1559C122.265 48 122.444 47.8399 122.616 47.6799C122.726 47.5784 122.895 47.588 122.993 47.7017C123.091 47.8154 123.082 47.9899 122.972 48.0915C122.795 48.2553 122.612 48.4193 122.428 48.579C122.378 48.6224 122.317 48.6435 122.257 48.6435ZM123.317 47.6623C123.246 47.6623 123.176 47.6337 123.124 47.5769C123.022 47.4666 123.026 47.2918 123.132 47.1865C123.302 47.0195 123.47 46.8476 123.632 46.676C123.735 46.5669 123.904 46.5652 124.01 46.6718C124.115 46.7784 124.117 46.9531 124.014 47.0621C123.847 47.2383 123.675 47.4145 123.501 47.5859C123.449 47.637 123.383 47.6623 123.317 47.6623ZM124.312 46.6107C124.247 46.6107 124.183 46.5868 124.132 46.5384C124.023 46.4356 124.015 46.2609 124.115 46.1485C124.273 45.9698 124.429 45.7866 124.58 45.6039C124.675 45.4879 124.843 45.4739 124.956 45.5728C125.068 45.6717 125.081 45.846 124.986 45.962C124.831 46.1496 124.671 46.3376 124.509 46.5209C124.456 46.5804 124.384 46.6107 124.312 46.6107ZM125.234 45.4906C125.176 45.4906 125.118 45.4711 125.068 45.4308C124.953 45.3361 124.934 45.1625 125.025 45.0431C125.17 44.8542 125.313 44.6601 125.451 44.4662C125.539 44.3433 125.706 44.3172 125.824 44.4075C125.943 44.4979 125.968 44.6708 125.881 44.7935C125.739 44.9927 125.592 45.1922 125.443 45.3862C125.391 45.4547 125.313 45.4906 125.234 45.4906ZM126.077 44.3054C126.026 44.3054 125.973 44.2898 125.927 44.2574C125.805 44.1716 125.774 43.9999 125.857 43.8739C125.988 43.6748 126.118 43.4705 126.242 43.2667C126.32 43.1376 126.485 43.0989 126.61 43.1803C126.734 43.2615 126.772 43.432 126.693 43.561C126.566 43.7705 126.433 43.9804 126.298 44.1848C126.246 44.2632 126.163 44.3054 126.077 44.3054ZM126.835 43.0601C126.79 43.0601 126.744 43.048 126.702 43.0228C126.574 42.9463 126.531 42.7774 126.605 42.6455C126.721 42.4376 126.836 42.2241 126.945 42.0109C127.015 41.8763 127.176 41.8252 127.306 41.8968C127.436 41.9683 127.486 42.1355 127.417 42.2701C127.304 42.4892 127.186 42.7086 127.066 42.9223C127.017 43.0108 126.927 43.0601 126.835 43.0601ZM127.503 41.7619C127.463 41.7619 127.424 41.753 127.386 41.7341C127.254 41.6675 127.198 41.5023 127.263 41.3652C127.365 41.1481 127.464 40.9268 127.557 40.7073C127.617 40.5679 127.774 40.5048 127.909 40.5663C128.044 40.6279 128.105 40.7909 128.046 40.9304C127.949 41.1558 127.847 41.3831 127.743 41.6063C127.697 41.7046 127.602 41.7619 127.503 41.7619ZM128.077 40.4173C128.044 40.4173 128.01 40.411 127.978 40.3976C127.841 40.3412 127.774 40.1806 127.829 40.039C127.915 39.8156 127.998 39.5874 128.077 39.3604C128.126 39.2168 128.279 39.1422 128.418 39.1935C128.557 39.2449 128.629 39.4028 128.579 39.5464C128.499 39.7795 128.413 40.014 128.325 40.2433C128.283 40.3514 128.183 40.4173 128.077 40.4173ZM128.556 39.0328C128.529 39.0328 128.502 39.0285 128.475 39.0196C128.334 38.9733 128.257 38.8181 128.301 38.6728C128.372 38.4433 128.44 38.2093 128.503 37.9772C128.543 37.8304 128.69 37.7444 128.832 37.786C128.974 37.8272 129.056 37.9795 129.017 38.1263C128.952 38.3646 128.882 38.6048 128.81 38.8404C128.774 38.9577 128.669 39.0328 128.556 39.0328ZM128.94 37.616C128.919 37.616 128.898 37.6135 128.877 37.6081C128.734 37.5721 128.646 37.4227 128.681 37.2746C128.736 37.041 128.788 36.8025 128.836 36.5657C128.866 36.4165 129.007 36.3204 129.151 36.3517C129.295 36.3828 129.388 36.5289 129.358 36.6783C129.309 36.9211 129.256 37.1656 129.199 37.4054C129.17 37.5314 129.06 37.616 128.94 37.616ZM129.23 36.1749C129.215 36.1749 129.2 36.1735 129.184 36.1707C129.039 36.1446 128.942 36.0017 128.967 35.8514C129.007 35.614 129.044 35.3722 129.076 35.1329C129.097 34.9819 129.232 34.877 129.378 34.8979C129.524 34.9191 129.625 35.0588 129.605 35.2097C129.571 35.4549 129.534 35.7026 129.493 35.9459C129.471 36.0802 129.358 36.1749 129.23 36.1749ZM129.429 34.7167C129.419 34.7167 129.41 34.7162 129.4 34.7151C129.253 34.6987 129.147 34.5625 129.163 34.4109C129.188 34.1723 129.21 33.9284 129.228 33.686C129.239 33.534 129.368 33.4201 129.515 33.432C129.662 33.4437 129.771 33.5765 129.76 33.7285C129.742 33.9765 129.719 34.2261 129.694 34.4704C129.679 34.6119 129.563 34.7167 129.429 34.7167ZM129.538 33.2482C129.534 33.2482 129.53 33.2481 129.526 33.2478C129.378 33.2407 129.265 33.1115 129.271 32.9592C129.282 32.7193 129.29 32.4744 129.294 32.2311C129.296 32.0785 129.42 31.958 129.565 31.9598C129.713 31.9623 129.83 32.088 129.827 32.2405C129.823 32.4891 129.816 32.7397 129.805 32.985C129.798 33.133 129.68 33.2482 129.538 33.2482ZM129.562 31.7751C129.417 31.7751 129.297 31.6537 129.296 31.5024C129.293 31.2608 129.287 31.0158 129.277 30.7738C129.272 30.6214 129.386 30.4931 129.533 30.4869C129.679 30.4825 129.805 30.5993 129.811 30.7517C129.82 30.9987 129.827 31.2492 129.829 31.4958C129.831 31.6483 129.713 31.7734 129.566 31.775C129.565 31.7752 129.564 31.7751 129.562 31.7751ZM129.505 30.3022C129.366 30.3022 129.249 30.1905 129.24 30.0447C129.224 29.8051 129.205 29.5607 129.183 29.3184C129.169 29.1665 129.277 29.0319 129.423 29.0176C129.569 29.0024 129.7 29.1147 129.714 29.2665C129.737 29.5137 129.756 29.763 129.772 30.0076C129.782 30.1598 129.671 30.2913 129.524 30.3016C129.518 30.302 129.511 30.3022 129.505 30.3022ZM129.372 28.8368C129.239 28.8368 129.124 28.7339 129.107 28.5938C129.079 28.3539 129.048 28.1107 129.014 27.8712C128.992 27.7204 129.093 27.5801 129.239 27.558C129.385 27.5356 129.52 27.6401 129.542 27.791C129.576 28.0352 129.609 28.2831 129.637 28.5276C129.655 28.679 129.551 28.8165 129.404 28.8348C129.393 28.8361 129.383 28.8368 129.372 28.8368ZM129.165 27.3802C129.038 27.3802 128.925 27.2853 128.903 27.1509C128.863 26.9146 128.82 26.6733 128.774 26.4337C128.746 26.2842 128.84 26.139 128.985 26.1094C129.129 26.08 129.269 26.1772 129.298 26.3268C129.345 26.5708 129.389 26.8165 129.429 27.0572C129.454 27.2075 129.356 27.3503 129.211 27.3761C129.196 27.3789 129.18 27.3802 129.165 27.3802ZM128.89 25.9359C128.767 25.9359 128.657 25.8483 128.63 25.7198C128.579 25.4834 128.524 25.2444 128.468 25.0094C128.433 24.8613 128.52 24.7118 128.663 24.6751C128.806 24.6387 128.951 24.7288 128.986 24.8769C129.044 25.1161 129.099 25.3594 129.151 25.6C129.182 25.7488 129.092 25.8964 128.948 25.9295C128.928 25.9337 128.909 25.9359 128.89 25.9359ZM128.549 24.5065C128.431 24.5065 128.323 24.4256 128.291 24.3026C128.23 24.0697 128.165 23.8334 128.099 23.6002C128.057 23.4541 128.138 23.3005 128.279 23.2572C128.42 23.214 128.569 23.2974 128.61 23.4436C128.678 23.6807 128.744 23.921 128.806 24.1579C128.845 24.3051 128.761 24.4568 128.619 24.4966C128.595 24.5033 128.572 24.5065 128.549 24.5065ZM128.144 23.0919C128.031 23.0919 127.927 23.0171 127.89 22.8998C127.819 22.6698 127.744 22.4358 127.667 22.2044C127.619 22.0603 127.693 21.9032 127.833 21.8536C127.972 21.8039 128.124 21.8807 128.172 22.0248C128.25 22.26 128.326 22.4978 128.399 22.7318C128.443 22.877 128.366 23.0324 128.226 23.0788C128.199 23.0877 128.171 23.0919 128.144 23.0919ZM127.68 21.6949C127.571 21.6949 127.469 21.6258 127.43 21.5142C127.348 21.2857 127.264 21.0553 127.178 20.8295C127.124 20.6876 127.192 20.5273 127.329 20.4716C127.466 20.4161 127.621 20.4859 127.675 20.6278C127.762 20.8573 127.848 21.0914 127.931 21.3234C127.981 21.4665 127.911 21.6251 127.772 21.6779C127.742 21.6895 127.711 21.6949 127.68 21.6949ZM127.159 20.3204C127.055 20.3204 126.955 20.2564 126.913 20.1504C126.823 19.9267 126.729 19.7002 126.634 19.4773C126.574 19.3377 126.636 19.1748 126.77 19.1134C126.905 19.0518 127.063 19.1153 127.122 19.2547C127.219 19.4811 127.314 19.711 127.405 19.9382C127.462 20.079 127.398 20.2406 127.262 20.2991C127.228 20.3136 127.193 20.3204 127.159 20.3204ZM126.584 18.9701C126.484 18.9701 126.387 18.911 126.342 18.8104C126.243 18.5903 126.141 18.3681 126.037 18.15C125.972 18.0131 126.027 17.8477 126.16 17.7806C126.292 17.7135 126.452 17.7701 126.517 17.907C126.621 18.1285 126.726 18.3541 126.826 18.5776C126.888 18.7158 126.83 18.88 126.697 18.9443C126.66 18.9618 126.622 18.9701 126.584 18.9701ZM64.7296 17.8407C64.6832 17.8407 64.6363 17.8282 64.5935 17.8018C64.4668 17.7239 64.4251 17.5546 64.5003 17.4236C64.5058 17.4142 64.6366 17.1871 64.9028 16.787C64.9864 16.6615 65.1525 16.6297 65.274 16.7162C65.3953 16.8027 65.426 16.9746 65.3424 17.1002C65.0876 17.483 64.9605 17.7034 64.9592 17.7057C64.9093 17.7925 64.8206 17.8407 64.7296 17.8407ZM125.957 17.6458C125.86 17.6458 125.767 17.5912 125.72 17.496C125.612 17.2792 125.502 17.0636 125.39 16.849C125.32 16.7149 125.368 16.5474 125.498 16.4749C125.628 16.4026 125.789 16.4525 125.859 16.5866C125.973 16.8044 126.085 17.0232 126.194 17.2432C126.262 17.3788 126.21 17.5452 126.079 17.615C126.04 17.636 125.998 17.6458 125.957 17.6458ZM65.5372 16.6184C65.4822 16.6184 65.4268 16.6009 65.3792 16.5647C65.2605 16.4742 65.2352 16.3013 65.3226 16.1787C65.4615 15.9838 65.6079 15.7839 65.7579 15.5847C65.8485 15.4645 66.0162 15.443 66.1324 15.5366C66.2487 15.6303 66.2695 15.8037 66.1789 15.924C66.0318 16.1194 65.8883 16.3152 65.7522 16.5061C65.7 16.5796 65.6191 16.6184 65.5372 16.6184ZM125.28 16.3494C125.187 16.3494 125.097 16.299 125.048 16.2093C124.932 15.9971 124.814 15.7862 124.694 15.5767C124.619 15.4454 124.661 15.2762 124.787 15.1985C124.914 15.1208 125.078 15.1642 125.153 15.2954C125.275 15.5081 125.395 15.7221 125.512 15.9374C125.585 16.07 125.54 16.2386 125.411 16.3136C125.37 16.3378 125.325 16.3494 125.28 16.3494ZM66.4132 15.4541C66.3537 15.4541 66.294 15.4336 66.2444 15.3917C66.1304 15.2951 66.1136 15.1212 66.2068 15.0033C66.3557 14.8151 66.5109 14.6233 66.6682 14.4333C66.764 14.3176 66.9324 14.3039 67.0445 14.4031C67.1565 14.5023 67.1695 14.6766 67.0737 14.7925C66.919 14.9794 66.7663 15.168 66.6199 15.353C66.5672 15.4195 66.4906 15.4541 66.4132 15.4541ZM124.555 15.0824C124.466 15.0824 124.378 15.036 124.328 14.9516C124.204 14.7445 124.078 14.5388 123.951 14.3345C123.871 14.2065 123.906 14.0355 124.03 13.9527C124.154 13.8699 124.319 13.9065 124.399 14.0346C124.528 14.242 124.656 14.4509 124.782 14.661C124.859 14.7907 124.821 14.9609 124.695 15.0411C124.652 15.0691 124.603 15.0824 124.555 15.0824ZM67.3402 14.3342C67.2769 14.3342 67.2133 14.3111 67.1624 14.264C67.0526 14.1624 67.0431 13.9879 67.1413 13.8743C67.2999 13.6908 67.4627 13.5063 67.6254 13.3259C67.7259 13.2144 67.8948 13.2083 68.0026 13.3121C68.1104 13.416 68.1163 13.5907 68.0158 13.7022C67.8557 13.8799 67.6953 14.0616 67.5393 14.2422C67.4865 14.3032 67.4134 14.3342 67.3402 14.3342ZM123.783 13.8469C123.697 13.8469 123.613 13.8042 123.562 13.7251C123.43 13.5233 123.297 13.323 123.162 13.1242C123.077 12.9996 123.106 12.8274 123.226 12.7396C123.347 12.6519 123.513 12.6818 123.598 12.8065C123.735 13.0082 123.871 13.2116 124.004 13.4164C124.087 13.5428 124.054 13.7143 123.932 13.7996C123.886 13.8316 123.834 13.8469 123.783 13.8469ZM68.3112 13.256C68.2442 13.256 68.1773 13.2301 68.1254 13.1781C68.0197 13.0719 68.0171 12.8972 68.1197 12.7878C68.2821 12.6146 68.4502 12.4386 68.6242 12.2602C68.7289 12.1529 68.8978 12.1537 69.0015 12.2619C69.1053 12.3702 69.1046 12.5449 68.9999 12.6523C68.8285 12.8282 68.6628 13.0016 68.5027 13.1723C68.4505 13.2279 68.381 13.256 68.3112 13.256ZM122.965 12.6448C122.883 12.6448 122.802 12.6057 122.75 12.532C122.611 12.3358 122.47 12.1412 122.328 11.9484C122.238 11.8273 122.26 11.654 122.378 11.5614C122.494 11.4687 122.662 11.4918 122.752 11.613C122.896 11.8088 123.039 12.0062 123.18 12.2053C123.268 12.3282 123.242 12.5011 123.123 12.5912C123.076 12.6274 123.02 12.6448 122.965 12.6448ZM69.3226 12.2186C69.2522 12.2186 69.1818 12.19 69.1294 12.1331C69.0277 12.0228 69.0316 11.848 69.1383 11.7428C69.3078 11.5754 69.4823 11.4063 69.6618 11.2357C69.7704 11.1328 69.9392 11.1401 70.0389 11.2523C70.1385 11.3646 70.1313 11.5392 70.0228 11.6424C69.8459 11.8105 69.6739 11.9772 69.5067 12.1421C69.455 12.1933 69.3887 12.2186 69.3226 12.2186ZM122.103 11.4778C122.025 11.4778 121.947 11.4422 121.894 11.3737C121.749 11.1847 121.599 10.9947 121.45 10.8087C121.356 10.6914 121.371 10.5173 121.485 10.4199C121.598 10.3224 121.766 10.3388 121.861 10.456C122.012 10.6447 122.164 10.8377 122.312 11.0297C122.403 11.1489 122.384 11.3226 122.269 11.4176C122.22 11.4582 122.161 11.4778 122.103 11.4778ZM70.3712 11.222C70.2974 11.222 70.2239 11.1905 70.1712 11.1289C70.0735 11.0147 70.0838 10.8402 70.1942 10.7392C70.3703 10.5781 70.5508 10.4159 70.7356 10.253C70.8477 10.154 71.0162 10.168 71.1118 10.2841C71.2074 10.4001 71.1939 10.5744 71.0817 10.6733C70.8995 10.8339 70.7215 10.9939 70.5479 11.1528C70.4971 11.1992 70.434 11.222 70.3712 11.222ZM121.197 10.3489C121.122 10.3489 121.048 10.3165 120.995 10.2535C120.842 10.0704 120.684 9.88624 120.527 9.70594C120.429 9.59275 120.437 9.41823 120.547 9.31606C120.656 9.21389 120.825 9.22302 120.924 9.33609C121.083 9.51918 121.243 9.70627 121.398 9.89225C121.495 10.0076 121.483 10.182 121.371 10.2817C121.321 10.3268 121.259 10.3489 121.197 10.3489ZM71.4548 10.2668C71.3777 10.2668 71.3012 10.2324 71.2485 10.1658C71.155 10.048 71.1715 9.87399 71.2854 9.77728C71.4675 9.62257 71.6535 9.46743 71.8436 9.31205C71.9591 9.21767 72.1269 9.23782 72.2185 9.35757C72.3098 9.47722 72.2902 9.65084 72.1745 9.74533C71.987 9.89848 71.8036 10.0515 71.6239 10.2041C71.5743 10.2462 71.5144 10.2668 71.4548 10.2668ZM72.5717 9.35345C72.4912 9.35345 72.4117 9.31595 72.3591 9.24461C72.2698 9.12329 72.2925 8.95011 72.4098 8.85774C72.5975 8.70982 72.7888 8.5619 72.9837 8.4141C73.1025 8.32395 73.2695 8.35044 73.3567 8.47342C73.4439 8.5963 73.4182 8.76914 73.2994 8.85929C73.107 9.0052 72.9183 9.15123 72.7331 9.29714C72.6847 9.33509 72.6279 9.35345 72.5717 9.35345ZM120.243 9.25562C120.172 9.25562 120.101 9.22646 120.049 9.1687C119.888 8.99185 119.723 8.81466 119.559 8.64215C119.456 8.5333 119.458 8.35857 119.563 8.25172C119.668 8.1451 119.837 8.14643 119.94 8.25528C120.107 8.43057 120.274 8.61065 120.437 8.7904C120.538 8.90136 120.533 9.0761 120.426 9.18061C120.374 9.23081 120.309 9.25562 120.243 9.25562ZM73.7196 8.48277C73.6358 8.48277 73.5534 8.44204 73.5014 8.36591C73.4164 8.24137 73.4452 8.06908 73.5656 7.98116C73.7586 7.84014 73.955 7.69946 74.1547 7.55922C74.2767 7.47341 74.4426 7.50647 74.5253 7.63257C74.6082 7.75878 74.5763 7.9304 74.4544 8.01599C74.2575 8.15433 74.0637 8.29312 73.8733 8.43213C73.8265 8.4663 73.7728 8.48277 73.7196 8.48277ZM119.245 8.2052C119.178 8.2052 119.111 8.17915 119.059 8.12673C118.892 7.95756 118.72 7.78805 118.548 7.62289C118.441 7.51883 118.435 7.3442 118.535 7.23268C118.636 7.12116 118.805 7.11504 118.912 7.2191C119.087 7.38705 119.261 7.55945 119.432 7.73151C119.537 7.83803 119.54 8.01276 119.437 8.12184C119.384 8.17726 119.315 8.2052 119.245 8.2052ZM74.8971 7.6555C74.8099 7.6555 74.7246 7.61142 74.6734 7.5304C74.5928 7.40285 74.6274 7.23168 74.7508 7.14831C74.9488 7.01453 75.1499 6.88131 75.3541 6.74853C75.4791 6.6674 75.6437 6.70646 75.722 6.83546C75.8005 6.96456 75.7628 7.13496 75.638 7.2161C75.4365 7.34698 75.2381 7.47842 75.0427 7.61053C74.9978 7.64103 74.9472 7.6555 74.8971 7.6555ZM118.204 7.20096C118.141 7.20096 118.078 7.17792 118.027 7.13106C117.851 6.96846 117.671 6.80719 117.495 6.65182C117.383 6.5531 117.369 6.3788 117.464 6.26272C117.56 6.14652 117.728 6.13228 117.841 6.23122C118.02 6.38927 118.203 6.55343 118.382 6.71882C118.492 6.82021 118.502 6.99472 118.404 7.10858C118.351 7.16968 118.278 7.20096 118.204 7.20096ZM76.1025 6.87252C76.012 6.87252 75.9239 6.825 75.8737 6.73907C75.7976 6.60852 75.8381 6.4389 75.9643 6.36011C76.1669 6.23367 76.3725 6.1079 76.5808 5.98292C76.7084 5.90634 76.8717 5.95153 76.9455 6.08331C77.0194 6.2152 76.976 6.38414 76.8485 6.4606C76.6429 6.58392 76.44 6.70802 76.24 6.83279C76.1969 6.85972 76.1494 6.87252 76.1025 6.87252ZM117.12 6.24725C117.061 6.24725 117.002 6.2271 116.952 6.1857C116.77 6.03311 116.584 5.88086 116.399 5.73317C116.282 5.64001 116.26 5.46661 116.35 5.34596C116.44 5.2252 116.608 5.20283 116.725 5.29588C116.913 5.44635 117.103 5.60139 117.288 5.75676C117.403 5.8527 117.42 6.02654 117.327 6.14496C117.275 6.2123 117.198 6.24725 117.12 6.24725ZM77.3337 6.13439C77.2399 6.13439 77.1489 6.08319 77.1002 5.99238C77.0286 5.85915 77.075 5.69098 77.2038 5.61697C77.4107 5.49799 77.6204 5.3798 77.8329 5.2626C77.9628 5.1907 78.1245 5.24156 78.1938 5.37623C78.2632 5.51068 78.2141 5.67796 78.084 5.74964C77.8743 5.86527 77.6674 5.98191 77.4631 6.09944C77.4221 6.12315 77.3776 6.13439 77.3337 6.13439ZM78.5894 5.4419C78.4924 5.4419 78.3988 5.38692 78.3516 5.29131C78.2845 5.15553 78.3366 4.98925 78.4679 4.91991C78.6788 4.8085 78.8924 4.69798 79.1085 4.58869C79.241 4.52147 79.4007 4.57845 79.4655 4.71546C79.5303 4.85235 79.4753 5.01774 79.343 5.08474C79.1297 5.19259 78.9189 5.30155 78.7107 5.41163C78.6717 5.4321 78.6303 5.4419 78.5894 5.4419ZM115.993 5.34841C115.938 5.34841 115.883 5.33105 115.835 5.2951C115.645 5.1513 115.452 5.00906 115.261 4.87206C115.14 4.78513 115.11 4.61318 115.194 4.48786C115.278 4.36254 115.444 4.33137 115.565 4.4183C115.76 4.55797 115.957 4.70311 116.151 4.84957C116.27 4.93961 116.295 5.11235 116.208 5.23533C116.156 5.30923 116.075 5.34841 115.993 5.34841ZM79.8679 4.79537C79.7674 4.79537 79.6713 4.7365 79.6259 4.63611C79.5635 4.49798 79.6212 4.33371 79.7547 4.26916C79.9693 4.16543 80.1864 4.06281 80.4061 3.96131C80.5404 3.8992 80.6986 3.96164 80.7586 4.10087C80.8186 4.24011 80.7583 4.40327 80.6237 4.46548C80.4069 4.56554 80.1926 4.66693 79.9806 4.76922C79.9442 4.78702 79.9056 4.79537 79.8679 4.79537ZM114.823 4.50967C114.773 4.50967 114.722 4.49509 114.677 4.46459C114.48 4.33137 114.28 4.19982 114.082 4.07372C113.957 3.99369 113.918 3.82352 113.995 3.69375C114.073 3.56397 114.237 3.52379 114.363 3.60371C114.564 3.73248 114.768 3.8667 114.969 4.0026C115.093 4.08607 115.127 4.25725 115.046 4.38479C114.995 4.46571 114.91 4.50967 114.823 4.50967ZM81.1672 4.19536C81.0635 4.19536 80.9648 4.13237 80.9216 4.02742C80.8638 3.88718 80.927 3.72502 81.0626 3.66526C81.2806 3.56921 81.501 3.47449 81.7239 3.38089C81.8604 3.32346 82.0161 3.39168 82.0715 3.53292C82.1269 3.67416 82.0611 3.83521 81.9245 3.89253C81.7046 3.9849 81.4871 4.07839 81.2718 4.17322C81.2376 4.18824 81.2021 4.19536 81.1672 4.19536ZM113.611 3.73715C113.566 3.73715 113.52 3.72513 113.478 3.69998C113.275 3.57855 113.069 3.45891 112.864 3.34449C112.734 3.27204 112.686 3.10454 112.756 2.97031C112.826 2.83609 112.988 2.78645 113.118 2.85879C113.327 2.97588 113.538 3.09808 113.745 3.22218C113.873 3.29864 113.917 3.46748 113.843 3.59937C113.793 3.68762 113.704 3.73715 113.611 3.73715ZM82.4857 3.6421C82.3785 3.6421 82.2775 3.57488 82.2367 3.46536C82.1837 3.32313 82.2521 3.1633 82.3896 3.10843C82.6108 3.02017 82.834 2.93325 83.0598 2.84766C83.198 2.79502 83.3514 2.86859 83.4022 3.01183C83.453 3.15507 83.382 3.31355 83.2435 3.36609C83.0207 3.45056 82.8002 3.53637 82.5819 3.62352C82.5501 3.6361 82.5176 3.6421 82.4857 3.6421ZM83.8217 3.1357C83.7112 3.1357 83.6079 3.06414 83.5696 2.95017C83.5213 2.80615 83.5949 2.64888 83.7342 2.5988C83.9581 2.51833 84.1843 2.43931 84.4124 2.36174C84.5522 2.3141 84.7033 2.3929 84.7493 2.53781C84.7954 2.68261 84.7191 2.83865 84.5791 2.88628C84.3537 2.96285 84.1305 3.04099 83.9093 3.12045C83.8803 3.13069 83.8507 3.1357 83.8217 3.1357ZM112.36 3.03731C112.319 3.03731 112.278 3.02785 112.24 3.00782C112.03 2.89864 111.817 2.79212 111.607 2.69129C111.473 2.62707 111.415 2.46291 111.477 2.32468C111.539 2.18644 111.698 2.12623 111.832 2.19056C112.047 2.29373 112.265 2.4028 112.48 2.51444C112.611 2.58288 112.664 2.74883 112.598 2.88506C112.551 2.98155 112.457 3.03731 112.36 3.03731ZM85.1733 2.67604C85.0595 2.67604 84.954 2.60014 84.9185 2.48172C84.8749 2.33614 84.9536 2.18143 85.0943 2.13625C85.3207 2.06357 85.5492 1.99245 85.7798 1.92267C85.9211 1.87971 86.0694 1.96385 86.1108 2.1102C86.1521 2.25656 86.071 2.40982 85.9295 2.45267C85.7018 2.52156 85.4762 2.59179 85.2525 2.66369C85.2261 2.67203 85.1996 2.67604 85.1733 2.67604ZM111.069 2.41783C111.034 2.41783 110.999 2.41071 110.965 2.39568C110.749 2.30086 110.53 2.20881 110.314 2.122C110.176 2.06691 110.108 1.90709 110.161 1.76496C110.214 1.62283 110.369 1.55194 110.506 1.60725C110.728 1.69618 110.953 1.79056 111.174 1.88783C111.309 1.9476 111.372 2.10965 111.315 2.24999C111.271 2.35484 111.173 2.41783 111.069 2.41783ZM86.5389 2.26324C86.4217 2.26324 86.3143 2.18277 86.2817 2.06023C86.2427 1.91321 86.3263 1.76129 86.4684 1.72088C86.697 1.656 86.9276 1.59256 87.1601 1.53079C87.3027 1.49295 87.4483 1.58176 87.485 1.72945C87.5217 1.87715 87.4357 2.02762 87.293 2.06557C87.0633 2.12668 86.8355 2.18934 86.6096 2.25344C86.5861 2.26001 86.5624 2.26324 86.5389 2.26324ZM87.9169 1.89662C87.7963 1.89662 87.687 1.81148 87.6576 1.68494C87.6232 1.53669 87.7114 1.38766 87.8548 1.35205C88.0854 1.29484 88.3177 1.23908 88.5521 1.1851C88.6958 1.15171 88.8386 1.24564 88.8706 1.39445C88.9027 1.54325 88.8121 1.69083 88.6683 1.724C88.4368 1.77742 88.2071 1.83252 87.9794 1.88894C87.9584 1.89417 87.9374 1.89662 87.9169 1.89662ZM109.742 1.88683C109.713 1.88683 109.684 1.88193 109.655 1.87147C109.433 1.79178 109.209 1.71554 108.988 1.64487C108.847 1.5999 108.768 1.44531 108.811 1.29962C108.855 1.15393 109.004 1.07224 109.145 1.11732C109.372 1.18988 109.603 1.26813 109.83 1.34993C109.969 1.40001 110.043 1.55739 109.994 1.70141C109.956 1.81538 109.853 1.88683 109.742 1.88683ZM89.3054 1.57586C89.1814 1.57586 89.0704 1.48605 89.0443 1.35561C89.0145 1.20636 89.1072 1.06022 89.2516 1.02939C89.4837 0.979754 89.7177 0.931785 89.9534 0.885263C90.0978 0.856882 90.2379 0.954935 90.2655 1.10474C90.293 1.25455 90.1981 1.39912 90.0533 1.42761C89.8203 1.47358 89.5891 1.52099 89.3596 1.57008C89.3414 1.57397 89.3232 1.57586 89.3054 1.57586ZM108.383 1.45299C108.36 1.45299 108.337 1.44987 108.314 1.44353C108.087 1.38054 107.858 1.32166 107.633 1.26846C107.49 1.23451 107.4 1.08649 107.433 0.937795C107.465 0.789213 107.608 0.696279 107.752 0.730224C107.984 0.784872 108.219 0.845528 108.452 0.910304C108.595 0.949814 108.679 1.10129 108.641 1.24854C108.609 1.37174 108.501 1.45299 108.383 1.45299ZM90.7029 1.30051C90.5757 1.30051 90.463 1.20591 90.4404 1.0718C90.4151 0.921545 90.5122 0.778639 90.6574 0.752373C90.8909 0.710191 91.1262 0.669679 91.3631 0.630725C91.5085 0.606907 91.6454 0.709523 91.6685 0.859998C91.6917 1.01058 91.5924 1.15204 91.4469 1.17597C91.2127 1.21448 90.9801 1.25466 90.7492 1.29628C90.7336 1.29907 90.7181 1.30051 90.7029 1.30051ZM106.997 1.12555C106.98 1.12555 106.964 1.124 106.947 1.12077C106.717 1.07614 106.484 1.03596 106.256 1.00146C106.111 0.979419 106.01 0.839295 106.031 0.688376C106.052 0.537456 106.188 0.432837 106.333 0.455097C106.569 0.490601 106.808 0.531892 107.046 0.57797C107.19 0.606017 107.286 0.750257 107.259 0.900175C107.235 1.03295 107.123 1.12555 106.997 1.12555ZM92.108 1.06957C91.9774 1.06957 91.8634 0.970294 91.8442 0.83273C91.8232 0.68181 91.9246 0.541909 92.0705 0.520317C92.3051 0.485481 92.5414 0.452314 92.7794 0.420705C92.9249 0.401228 93.0592 0.508298 93.0779 0.659551C93.0966 0.810693 92.9932 0.949036 92.8471 0.968401C92.6118 0.999565 92.3782 1.0324 92.1462 1.06679C92.1334 1.06868 92.1206 1.06957 92.108 1.06957ZM105.589 0.912753C105.58 0.912753 105.57 0.912196 105.56 0.911083C105.324 0.884594 105.09 0.859664 104.856 0.836291C104.709 0.8216 104.602 0.686595 104.616 0.534896C104.63 0.383087 104.76 0.2719 104.907 0.286814C105.143 0.310409 105.38 0.335563 105.618 0.362274C105.764 0.378635 105.87 0.514864 105.854 0.666451C105.84 0.80791 105.724 0.912753 105.589 0.912753ZM93.5191 0.882479C93.3852 0.882479 93.2697 0.778415 93.2544 0.637513C93.2378 0.486037 93.3431 0.349253 93.4895 0.332113C93.725 0.304511 93.9622 0.278578 94.2009 0.254203C94.3484 0.239401 94.4782 0.350143 94.4926 0.501841C94.507 0.65354 94.3998 0.788655 94.2532 0.803569C94.0171 0.827609 93.7825 0.853319 93.5496 0.880587C93.5394 0.881923 93.5292 0.882479 93.5191 0.882479ZM104.173 0.770849C104.166 0.770849 104.158 0.770514 104.151 0.769847C103.914 0.749034 103.679 0.729779 103.445 0.711971C103.298 0.700842 103.187 0.568509 103.198 0.416476C103.209 0.264332 103.337 0.149361 103.484 0.161381C103.72 0.1793 103.957 0.198778 104.196 0.219814C104.343 0.232724 104.452 0.366392 104.439 0.518313C104.427 0.662221 104.31 0.770849 104.173 0.770849ZM94.9351 0.738237C94.7978 0.738237 94.6812 0.629277 94.6694 0.485258C94.6572 0.333337 94.7662 0.199891 94.913 0.187091C95.1492 0.166613 95.3869 0.147692 95.626 0.130441C95.7744 0.119533 95.9006 0.234505 95.9108 0.386538C95.921 0.538681 95.8101 0.670569 95.6631 0.681143C95.4264 0.698171 95.1912 0.716868 94.9576 0.737124C94.9501 0.737904 94.9426 0.738237 94.9351 0.738237ZM102.754 0.663223C102.749 0.663223 102.743 0.663113 102.738 0.662667C102.501 0.647753 102.265 0.634285 102.031 0.622376C101.884 0.614919 101.77 0.485369 101.777 0.333113C101.785 0.180858 101.91 0.0638858 102.057 0.0708976C102.294 0.0829177 102.531 0.0964957 102.771 0.111632C102.918 0.12087 103.03 0.251867 103.021 0.404011C103.012 0.550479 102.894 0.663223 102.754 0.663223ZM96.3546 0.635843C96.214 0.635843 96.0963 0.522209 96.0883 0.375185C96.0801 0.222929 96.1928 0.0925993 96.3398 0.0841407C96.5764 0.070451 96.8146 0.0585433 97.0542 0.0480813C97.2006 0.0407357 97.3258 0.160046 97.332 0.312301C97.3382 0.464668 97.2238 0.593328 97.0766 0.599672C96.8394 0.609911 96.6037 0.62182 96.3696 0.635398C96.3646 0.635621 96.3595 0.635843 96.3546 0.635843ZM101.333 0.591213C101.33 0.591213 101.327 0.591213 101.323 0.59099C101.086 0.581975 100.85 0.57463 100.616 0.568731C100.468 0.565058 100.352 0.438513 100.355 0.286146C100.359 0.13378 100.479 0.0124654 100.628 0.0168061C100.865 0.0227048 101.103 0.0301613 101.343 0.0392877C101.49 0.0448526 101.605 0.172957 101.6 0.325323C101.595 0.47424 101.476 0.591213 101.333 0.591213ZM97.7763 0.574184C97.6325 0.574184 97.5138 0.455653 97.5097 0.305958C97.5055 0.15348 97.6216 0.0264894 97.7689 0.0221488C98.0058 0.0152483 98.2441 0.00990546 98.4839 0.00623264C98.4853 0.00623264 98.4866 0.00623264 98.488 0.00623264C98.6336 0.00623264 98.7526 0.127102 98.7547 0.278244C98.757 0.430722 98.6392 0.556154 98.4919 0.55838C98.2546 0.562053 98.0187 0.567284 97.7842 0.574184C97.7815 0.574184 97.7789 0.574184 97.7763 0.574184ZM99.9107 0.555709C99.9098 0.555709 99.9087 0.555709 99.9077 0.555709C99.7015 0.553371 99.4961 0.552148 99.2918 0.552148H99.1999C99.1998 0.552148 99.1996 0.552148 99.1995 0.552148C99.0523 0.552148 98.9329 0.42883 98.9327 0.276575C98.9324 0.124097 99.0517 0.000333893 99.1991 0H99.2918C99.498 0 99.7055 0.0012248 99.9137 0.00367335C100.061 0.00534282 100.179 0.13033 100.178 0.282807C100.176 0.434172 100.057 0.555709 99.9107 0.555709Z" fill="#699FF0"/>
<path d="M282.746 138.988C282.746 138.988 268.334 139.012 246.352 139.061C246.024 138.915 245.848 138.83 245.848 138.83C245.848 138.83 248.332 124.769 261.221 121.751C274.11 118.733 274.263 105.848 282.312 103.278C288.933 101.169 294.85 103.957 298.869 103.242C305.22 124.03 282.746 138.988 282.746 138.988Z" fill="#2DB878"/>
<path d="M91.4343 87.727C91.4343 87.727 91.2705 87.9088 90.9659 88.2483C89.8526 89.4969 86.8297 92.8909 83.5018 96.794C82.7169 97.7152 81.9084 98.6729 81.1 99.6301C79.8929 101.073 78.7095 102.515 77.608 103.909L77.5965 103.921C77.2565 104.333 76.9403 104.733 76.624 105.133C75.9676 105.97 75.3584 106.77 74.796 107.522C73.1087 109.8 71.9254 111.643 71.7026 112.576C70.3553 118.407 72.9797 134.819 73.6595 138.831H36.8435C37.9567 130.491 39.5034 118.71 39.7026 116.916C40.0073 114.091 30.481 101.97 30.317 93.1209C30.1645 84.2844 35.8123 77.9571 36.7029 69.2539C37.1364 65.1567 36.6442 59.8233 36.0115 55.2778C35.6834 52.8657 35.2968 50.708 34.9921 49.0714C34.8396 48.2715 35.0975 47.532 35.578 47.023C35.7069 46.8899 35.8475 46.7563 35.9998 46.6714C36.5856 46.2717 37.3472 46.1746 38.0736 46.5019C40.1827 47.4355 42.5263 49.9082 43.1356 56.0779C43.1356 56.0779 44.9048 57.2293 47.7639 59.1082C48.9239 59.8599 50.2598 60.7325 51.7362 61.7025C52.8726 62.4417 54.0915 63.2419 55.3684 64.0783C55.4505 64.1268 55.5326 64.1874 55.6146 64.236C56.1302 64.5751 56.6341 64.9146 57.173 65.266H57.1846C57.372 65.3871 57.5597 65.5206 57.7588 65.642C58.0986 65.872 58.4503 66.1024 58.8133 66.3329C58.8835 66.3812 58.954 66.4296 59.0361 66.4662C61.356 67.9935 63.7814 69.5936 66.2304 71.2059H66.242C66.6405 71.4478 67.0388 71.7147 67.4371 71.9815C67.7418 72.1875 68.0582 72.3813 68.3746 72.5875C68.7613 72.8542 69.1595 73.1086 69.5581 73.3632H69.5698C72.3467 75.1814 75.0651 76.9753 77.6077 78.6361C78.0061 78.9028 78.4046 79.1573 78.7911 79.4117C79.1076 79.6181 79.4121 79.8241 79.7168 80.0179C80.127 80.2845 80.5019 80.5391 80.8885 80.806H80.9003C85.7512 83.9695 89.5007 86.4423 90.8717 87.3515C91.2354 87.5937 91.4343 87.715 91.4343 87.727Z" fill="#FFB27D"/>
<path d="M37.8867 53.1469C37.9424 54.1766 37.2552 55.0789 36.2693 55.2331L36.0139 55.2723C35.6799 52.8708 35.2988 50.7062 34.994 49.0691C34.8434 48.269 34.6125 47.5 34.6779 46.6808C36.28 45.87 36.8962 47.8301 37.0932 48.6255C37.4229 49.9182 37.797 51.6576 37.8867 53.1469Z" fill="#FFC197"/>
<path opacity="0.3" d="M81.0999 99.6302C79.8929 101.073 78.7094 102.515 77.6079 103.909L77.5964 103.921C77.2564 104.333 76.9402 104.734 76.6239 105.133C75.9676 105.97 75.3583 106.77 74.7959 107.522C73.1087 109.8 71.9253 111.643 71.7025 112.576C70.3552 118.407 72.9797 134.819 73.6594 138.831H49.709C54.1499 131.983 54.724 119.922 54.7591 114.382C54.7707 112.988 55.2045 111.315 55.9075 109.546C57.2433 106.127 59.5398 102.297 61.649 99.1333C63.5939 96.2 65.3867 93.8485 66.1133 92.9151C66.1133 92.9151 66.1133 92.9151 66.1133 92.9031C66.3477 92.6242 66.4647 92.4664 66.4647 92.4664L79.7052 91.8847H79.717L79.8927 92.8544L80.0334 93.6786L80.6426 97.097L81.0999 99.6302Z" fill="#E2915A"/>
<path d="M90.4433 105.849L50.8163 110.085C49.5739 110.218 48.4523 109.275 48.3238 107.99L40.1341 26.0118C40.0058 24.7265 40.9171 23.5662 42.1596 23.4335L81.7865 19.1968C83.029 19.064 84.1505 20.0068 84.2789 21.2922L92.4687 103.27C92.5971 104.556 91.6857 105.716 90.4433 105.849Z" fill="#2DB878"/>
<path d="M94.7221 105.391L55.0951 109.628C53.8527 109.761 52.7311 108.818 52.6028 107.533L44.4129 25.5543C44.2846 24.2689 45.1959 23.1087 46.4384 22.9759L86.0654 18.7393C87.3077 18.6065 88.4293 19.5493 88.5578 20.8347L96.7476 102.813C96.876 104.098 95.9645 105.259 94.7221 105.391Z" fill="#2DB878"/>
<path opacity="0.4" d="M73.5423 23.8599C73.517 23.606 73.2951 23.4195 73.0496 23.4458L61.5742 24.6726C61.3287 24.6989 61.1484 24.9282 61.1738 25.1823C61.1992 25.4362 61.4208 25.6226 61.6664 25.5964L73.1419 24.3696C73.3874 24.3433 73.5677 24.114 73.5423 23.8599Z" fill="#2DB878"/>
<path opacity="0.4" d="M59.5362 24.8907C59.2906 24.9168 59.1104 25.1462 59.1357 25.4002C59.1611 25.6543 59.3828 25.8406 59.6283 25.8143C59.8739 25.7882 60.0541 25.5588 60.0287 25.3048C60.0034 25.0507 59.7818 24.8644 59.5362 24.8907Z" fill="#2DB878"/>
<path opacity="0.4" d="M74.9765 105.658C76.5753 105.658 77.8714 104.317 77.8714 102.663C77.8714 101.009 76.5753 99.6686 74.9765 99.6686C73.3777 99.6686 72.0815 101.009 72.0815 102.663C72.0815 104.317 73.3777 105.658 74.9765 105.658Z" fill="#2DB878"/>
<path d="M85.243 25.7714L48.5405 29.6954L55.5424 99.7829L92.2449 95.859L85.243 25.7714Z" fill="#EBF3FA"/>
<path d="M91.4331 87.7281L54.7305 91.6521L55.5433 99.7882L92.2459 95.8643L91.4331 87.7281Z" fill="#F3F4F5"/>
<path d="M66.5483 93.289L85.4905 91.264C85.7094 91.2405 85.87 91.0361 85.8474 90.8096C85.8247 90.5831 85.627 90.4169 85.4082 90.4404L66.4661 92.4654C66.2471 92.4888 66.0865 92.6934 66.1091 92.9199C66.1318 93.1464 66.3294 93.3125 66.5483 93.289Z" fill="#2DB878"/>
<path d="M86.0275 92.614C86.0049 92.3875 85.8073 92.2214 85.5883 92.2447L66.6462 94.2698C66.4272 94.2933 66.2666 94.4978 66.2892 94.7244C66.3119 94.9508 66.5096 95.1169 66.7286 95.0936L85.6706 93.0685C85.8895 93.0451 86.0501 92.8406 86.0275 92.614Z" fill="#2DB878"/>
<path d="M63.5714 91.5092C63.5479 91.23 63.4777 90.9757 63.3722 90.7333C62.9387 89.6059 61.8255 88.8786 60.607 89.012C59.3884 89.1452 58.4394 90.0906 58.2283 91.2786C58.1816 91.5453 58.17 91.8122 58.1933 92.091C58.3456 93.618 61.3804 96.7453 61.3804 96.7453C61.3804 96.7453 63.7239 93.0483 63.5714 91.5092ZM61.0054 93.0726C60.3142 93.1453 59.6931 92.6243 59.6228 91.909C59.5994 91.6182 59.6579 91.3394 59.7867 91.109C59.9859 90.7575 60.3373 90.515 60.7476 90.4666C61.1694 90.4181 61.5562 90.5877 61.8137 90.8908C61.9897 91.0849 62.1067 91.3394 62.142 91.6303C62.2122 92.3573 61.7085 93.0001 61.0054 93.0726Z" fill="#2DB878"/>
<path d="M55.5333 57.6649L76.6958 55.4024L74.8924 37.3508L53.7299 39.6133L55.5333 57.6649Z" fill="#2DB878"/>
<path d="M64.3104 38.4821L66.1138 56.5338L83.9274 54.6293L82.124 36.5776L64.3104 38.4821Z" fill="#2DB878"/>
<path opacity="0.4" d="M83.4702 50.0514L83.9276 54.6293L66.1139 56.5338L64.3105 38.4821L83.4702 50.0514Z" fill="#2DB878"/>
<path d="M55.0882 53.0857L58.4415 52.7272L58.0485 51.7826L58.2743 51.0534L54.9209 51.412L55.0882 53.0857Z" fill="#2DB878"/>
<path d="M54.362 45.8151L57.7154 45.4566L57.3225 44.512L57.5482 43.7828L54.1948 44.1414L54.362 45.8151Z" fill="#2DB878"/>
<path opacity="0.4" d="M82.7437 42.7807L79.3902 43.1391L79.5882 42.1313L79.2231 41.4656L82.5765 41.107L82.7437 42.7807Z" fill="#2DB878"/>
<path d="M58.721 62.8051C58.6155 62.7323 58.4983 62.672 58.3694 62.6114C58.0412 62.4778 57.6663 62.4175 57.2797 62.4535C56.3658 62.5507 55.6276 63.2174 55.3696 64.078C55.276 64.3689 55.241 64.6841 55.276 65.0114C55.4047 66.2843 56.5179 67.2176 57.7483 67.0841C58.2521 67.0356 58.6974 66.8175 59.0373 66.4659C59.541 66.0054 59.8338 65.2902 59.7519 64.5262C59.6818 63.7992 59.2834 63.169 58.721 62.8051ZM58.8146 66.3327C58.5216 66.5992 58.1469 66.769 57.7249 66.8175C56.6353 66.9264 55.6509 66.1144 55.5455 64.9871C55.5221 64.7326 55.5455 64.4778 55.6158 64.2358C55.815 63.4356 56.4711 62.8051 57.3149 62.7207C57.6428 62.6839 57.9591 62.7323 58.2405 62.866C58.3811 62.9145 58.51 62.987 58.6271 63.0719C59.0958 63.3992 59.4359 63.9328 59.4943 64.5629C59.5647 65.2537 59.2952 65.9083 58.8146 66.3327Z" fill="#2DB878"/>
<path d="M56.2144 63.7133L57.6396 66.007L59.549 60.3288L57.4728 64.337L56.2144 63.7133Z" fill="#2DB878"/>
<path d="M60.6076 73.0721C60.5372 72.3327 60.1389 71.7146 59.5764 71.3387C59.4708 71.2659 59.3421 71.2057 59.2246 71.1446C58.8849 71.0116 58.5217 70.9508 58.1351 70.9872C56.9047 71.1207 56.0025 72.2722 56.1314 73.545C56.2602 74.8178 57.3618 75.7511 58.6036 75.6177C59.8341 75.4965 60.7364 74.3449 60.6076 73.0721ZM58.5687 75.3511C57.4789 75.4722 56.5065 74.6479 56.3893 73.5208C56.2837 72.3935 57.0805 71.3753 58.1705 71.2659C58.4983 71.2296 58.8146 71.2781 59.096 71.3995C59.2366 71.4477 59.3656 71.5205 59.4826 71.6055C59.9514 71.9327 60.2912 72.466 60.3497 73.0964C60.4552 74.2235 59.6584 75.2297 58.5687 75.3511Z" fill="#2DB878"/>
<path d="M57.0674 72.2485L58.4927 74.5422L60.4022 68.8641L58.3258 72.8722L57.0674 72.2485Z" fill="#2DB878"/>
<path d="M61.4628 81.6056C61.334 80.3207 60.2209 79.3876 58.9906 79.5209C57.7602 79.654 56.858 80.8058 56.9869 82.0784C57.1157 83.3633 58.2172 84.2845 59.4591 84.1635C60.6895 84.0299 61.5917 82.8785 61.4628 81.6056ZM59.4239 83.8848C58.3342 84.0057 57.3617 83.1816 57.2445 82.0541C57.139 80.9268 57.9241 79.9089 59.0139 79.7996C60.1035 79.6783 61.0877 80.5028 61.1933 81.63C61.3106 82.7572 60.5138 83.7632 59.4239 83.8848Z" fill="#2DB878"/>
<path d="M84.2248 61.5474L63.0353 63.8128C62.8208 63.8358 62.6269 63.6729 62.6049 63.4508L62.5958 63.3616C62.5737 63.1395 62.7312 62.9392 62.9458 62.9162L84.1352 60.6508C84.3499 60.6279 84.5436 60.7908 84.5659 61.0127L84.5747 61.102C84.5969 61.3242 84.4394 61.5245 84.2248 61.5474Z" fill="#2DB878"/>
<path d="M84.3839 63.1435L63.1945 65.4089C62.9799 65.4317 62.7861 65.2689 62.7639 65.047L62.755 64.9576C62.7329 64.7357 62.8903 64.5351 63.1049 64.5122L84.2943 62.2468C84.509 62.2239 84.7028 62.3869 84.7249 62.6089L84.7339 62.6982C84.756 62.9202 84.5986 63.1205 84.3839 63.1435Z" fill="#2DB878"/>
<path d="M85.0788 70.097L63.8893 72.3624C63.6747 72.3853 63.4809 72.2224 63.4588 72.0003L63.4499 71.9111C63.4276 71.6892 63.5851 71.4886 63.7998 71.4657L84.9892 69.2003C85.2038 69.1775 85.3975 69.3403 85.4197 69.5623L85.4287 69.6516C85.4508 69.8736 85.2933 70.0741 85.0788 70.097Z" fill="#2DB878"/>
<path d="M85.2379 71.6932L64.0484 73.9585C63.8339 73.9815 63.6401 73.8185 63.6178 73.5966L63.609 73.5073C63.5869 73.2853 63.7443 73.0849 63.9589 73.0618L85.1483 70.7965C85.3629 70.7735 85.5567 70.9364 85.5789 71.1584L85.5878 71.2476C85.61 71.4698 85.4526 71.6703 85.2379 71.6932Z" fill="#2DB878"/>
<path d="M85.9328 78.6465L64.7432 80.912C64.5287 80.9349 64.335 80.772 64.3128 80.5501L64.3039 80.4607C64.2816 80.2388 64.4391 80.0383 64.6537 80.0154L85.8431 77.7499C86.0578 77.727 86.2515 77.8898 86.2738 78.112L86.2826 78.2012C86.3048 78.4233 86.1473 78.6237 85.9328 78.6465Z" fill="#2DB878"/>
<path d="M86.0919 80.2427L64.9025 82.5081C64.6879 82.531 64.4941 82.3682 64.4719 82.146L64.463 82.0569C64.4409 81.8348 64.5984 81.6344 64.8129 81.6115L86.0023 79.346C86.217 79.3232 86.4107 79.486 86.433 79.7079L86.4419 79.7973C86.4641 80.0194 86.3066 80.2198 86.0919 80.2427Z" fill="#2DB878"/>
<path d="M89.688 32.2349C89.688 32.2349 95.4396 26.9481 99.2122 29.9485C102.985 32.9491 90.7247 42.6138 90.7247 42.6138L89.688 32.2349Z" fill="#FFB27D"/>
<path d="M96.342 53.9335L89.6582 57.7582C87.7207 58.8671 85.2583 58.1343 84.1866 56.1299L83.0949 54.0882C82.0231 52.0837 82.7315 49.5366 84.6691 48.4278L91.3528 44.6031C93.2904 43.4942 95.7527 44.227 96.8246 46.2315L97.9161 48.273C98.988 50.2776 98.2797 52.8248 96.342 53.9335Z" fill="#FFB27D"/>
<path d="M97.5001 65.5181L90.8164 69.343C88.8788 70.4519 86.4166 69.7191 85.3447 67.7146L84.2531 65.673C83.1813 63.6685 83.8897 61.1213 85.8272 60.0126L92.511 56.1878C94.4487 55.079 96.9109 55.8118 97.9827 57.8162L99.0742 59.8579C100.146 61.8623 99.4378 64.4094 97.5001 65.5181Z" fill="#FFB27D"/>
<path d="M98.6262 76.7899L91.9425 80.6148C90.0048 81.7235 87.5426 80.9908 86.4707 78.9864L85.3791 76.9448C84.3073 74.9403 85.0156 72.3931 86.9532 71.2844L93.6371 67.4595C95.5746 66.3508 98.0369 67.0836 99.1087 69.088L100.2 71.1296C101.272 73.1339 100.564 75.6812 98.6262 76.7899Z" fill="#FFB27D"/>
<path d="M83.4107 51.3559C84.448 50.5487 85.8631 49.5334 87.1589 48.8932C88.0554 48.4503 89.1275 48.768 89.6376 49.6499L91.1031 52.1835C91.6115 53.0626 91.3495 54.2031 90.5067 54.7408C89.4715 55.4012 88.0163 56.2629 86.527 56.9288C85.4828 57.3956 84.2656 56.9624 83.7065 55.9377L82.8167 54.3066C82.2714 53.3066 82.5239 52.046 83.4107 51.3559Z" fill="#FFC197"/>
<path d="M84.6003 63.2597C85.6374 62.4526 87.0525 61.4373 88.3484 60.7973C89.2449 60.3543 90.317 60.6719 90.8271 61.5539L92.2924 64.0876C92.8009 64.9665 92.539 66.1072 91.696 66.6447C90.6609 67.3051 89.2057 68.1668 87.7163 68.8326C86.6723 69.2994 85.455 68.8663 84.896 67.8415L84.0063 66.2104C83.4608 65.2105 83.7133 63.95 84.6003 63.2597Z" fill="#FFC197"/>
<path d="M85.9269 74.4167C86.9642 73.6096 88.3792 72.5943 89.675 71.9542C90.5714 71.5113 91.6436 71.8288 92.1537 72.7108L93.6192 75.2445C94.1276 76.1234 93.8657 77.2641 93.0229 77.8016C91.9877 78.462 90.5325 79.3237 89.0432 79.9896C87.9989 80.4563 86.7817 80.0232 86.2227 78.9985L85.3329 77.3675C84.7875 76.3674 85.04 75.107 85.9269 74.4167Z" fill="#FFC197"/>
<path d="M122.075 111.379L137.526 113.895L127.352 106.497L126.797 108.812L123.022 109.461L122.075 111.379Z" fill="#F6A873"/>
<path d="M137.526 113.895L124.737 106.831L112.119 105.986L137.526 113.895Z" fill="#FFB27D"/>
<path d="M127.352 106.497L137.526 113.895L129.729 102.454L127.352 106.497Z" fill="#FFB27D"/>
<path d="M104.699 14.4352L92.6992 8.03894L103.429 8.25219L102.675 10.1567L104.984 12.5997L104.699 14.4352Z" fill="#65DAA4"/>
<path d="M92.6992 8.03894L105.086 9.86356L114.29 15.9294L92.6992 8.03894Z" fill="#2DB878"/>
<path d="M103.429 8.25221L92.6992 8.03896L103.766 4.18283L103.429 8.25221Z" fill="#2DB878"/>
</svg>
